<?xml version="1.0" encoding="UTF-8" standalone="no"?>
<svg
   xmlns:dc="http://purl.org/dc/elements/1.1/"
   xmlns:cc="http://creativecommons.org/ns#"
   xmlns:rdf="http://www.w3.org/1999/02/22-rdf-syntax-ns#"
   xmlns:svg="http://www.w3.org/2000/svg"
   xmlns="http://www.w3.org/2000/svg"
   xmlns:sodipodi="http://sodipodi.sourceforge.net/DTD/sodipodi-0.dtd"
   xmlns:inkscape="http://www.inkscape.org/namespaces/inkscape"
   viewBox="0 0 345 171"
   version="1.1"
   id="svg53"
   sodipodi:docname="custom3.svg"
   inkscape:version="0.92.3 (2405546, 2018-03-11)">
  <metadata
     id="metadata57">
    <rdf:RDF>
      <cc:Work
         rdf:about="">
        <dc:format>image/svg+xml</dc:format>
        <dc:type
           rdf:resource="http://purl.org/dc/dcmitype/StillImage" />
        <dc:title>nginx.com-CustomerSection-logos_345x171_R01mw</dc:title>
      </cc:Work>
    </rdf:RDF>
  </metadata>
  <sodipodi:namedview
     pagecolor="#ffffff"
     bordercolor="#666666"
     borderopacity="1"
     objecttolerance="10"
     gridtolerance="10"
     guidetolerance="10"
     inkscape:pageopacity="0"
     inkscape:pageshadow="2"
     inkscape:window-width="1920"
     inkscape:window-height="951"
     id="namedview55"
     showgrid="false"
     inkscape:zoom="2.626087"
     inkscape:cx="210.0465"
     inkscape:cy="55.036424"
     inkscape:window-x="0"
     inkscape:window-y="27"
     inkscape:window-maximized="1"
     inkscape:current-layer="svg53" />
  <defs
     id="defs13">
    <style
       id="style2">.cls-1{fill:#fff;}.cls-2{fill:none;}.cls-3{clip-path:url(#clip-path);}.cls-4{clip-path:url(#clip-path-2);}.cls-5{clip-path:url(#clip-path-3);}</style>
    <clipPath
       id="clip-path">
      <path
         class="cls-1"
         d="M223.93,108.36l0,0c-12.14,8.6-26.53,17.63-42,27.11l-.61.35a.46.46,0,0,0,.53.76l.52-.27c13.13-6.85,28.2-15,43.37-23.33l.24-.13a19,19,0,0,1-2-4.52m79.72-64.53c-19.14-21.12-142.34-2.12-194.72,9.32l-1.22.26a.46.46,0,0,0,.16.91l1.21-.24c43.4-7.73,133.66-18.44,153.08.82,5.92,5.87,4.51,13.44-2.36,22.37a17.73,17.73,0,0,1,7.53,10.81C294.16,70.24,312.18,53.23,303.65,43.82Z"
         id="path4" />
    </clipPath>
    <clipPath
       id="clip-path-2">
      <rect
         class="cls-1"
         x="30.35"
         y="34.31"
         width="294.3"
         height="102.38"
         id="rect7" />
    </clipPath>
    <clipPath
       id="clip-path-3">
      <rect
         class="cls-2"
         x="30.35"
         y="34.31"
         width="294.3"
         height="102.38"
         id="rect10" />
    </clipPath>
  </defs>
  <title
     id="title15">nginx.com-CustomerSection-logos_345x171_R01mw</title>
  <g
     id="Layer_1"
     data-name="Layer 1"
     style="fill:#ffffff"
     transform="translate(-1.5312464,-4.0244455)">
    <path
       class="cls-1"
       d="m 223.93,108.36 v 0 c -12.14,8.6 -26.53,17.63 -42,27.11 l -0.61,0.35 a 0.46327638,0.46327638 0 0 0 0.53,0.76 l 0.52,-0.27 c 13.13,-6.85 28.2,-15 43.37,-23.33 l 0.24,-0.13 a 19,19 0 0 1 -2,-4.52 M 303.7,43.8 C 284.56,22.68 161.36,41.68 108.98,53.12 l -1.22,0.26 a 0.46197944,0.46197944 0 0 0 0.16,0.91 l 1.21,-0.24 c 43.4,-7.73 133.66,-18.44 153.08,0.82 5.92,5.87 4.51,13.44 -2.36,22.37 a 17.73,17.73 0 0 1 7.53,10.81 c 26.78,-17.81 44.8,-34.82 36.27,-44.23 z"
       id="path20"
       style="fill:#ffffff"
       inkscape:connector-curvature="0" />
    <g
       class="cls-3"
       clip-path="url(#clip-path)"
       id="g28"
       style="fill:#ffffff">
      <rect
         class="cls-1"
         x="30.35"
         y="34.310001"
         width="294.29999"
         height="102.38"
         id="rect22"
         style="fill:#ffffff" />
      <g
         class="cls-4"
         clip-path="url(#clip-path-2)"
         id="g26"
         style="fill:#ffffff">
        <rect
           class="cls-1"
           x="23.540001"
           y="-28.780001"
           width="307.92001"
           height="228.56"
           transform="rotate(-28,177.50315,85.494359)"
           id="rect24"
           style="fill:#ffffff" />
      </g>
    </g>
    <path
       class="cls-1"
       d="m 231.68,102.82 c 0.25,7.42 4.95,13.51 11.08,13.51 11.88,0 16.94,-14.59 16.59,-24.34 -0.25,-7.45 -5.08,-13.52 -11.2,-13.52 -10.22,0 -16.82,14.53 -16.47,24.35 m -6.28,-0.4 c -0.44,-12.68 9.5,-25.65 23.93,-25.65 9.65,0 16,6.43 16.32,16.28 0.46,13.37 -8.82,25.65 -23.92,25.65 -9.66,0 -15.97,-6.42 -16.33,-16.28 z"
       id="path30"
       style="fill:#ffffff"
       inkscape:connector-curvature="0" />
    <path
       class="cls-1"
       d="m 88.71,99.07 a 14.5,14.5 0 0 1 -2,0.56 c -0.82,0.18 -2.33,0.46 -4.51,0.8 a 7.88,7.88 0 0 0 -3.15,1 2.33,2.33 0 0 0 -1,1.54 1.5,1.5 0 0 0 0.66,1.59 5.27,5.27 0 0 0 2.91,0.61 9.73,9.73 0 0 0 3,-0.48 7.25,7.25 0 0 0 2.45,-1.3 4,4 0 0 0 1.06,-1.53 22.2,22.2 0 0 0 0.59,-2.76 m 12.55,-7.8 a 31.14,31.14 0 0 1 -0.57,4 l -2.12,11.91 a 2.21,2.21 0 0 0 1.19,2.46 l -0.06,0.46 H 87.56 l -0.11,-3 a 24.25,24.25 0 0 1 -5.84,2.5 21.36,21.36 0 0 1 -5.82,0.71 c -3.93,0 -6.17,-0.41 -7.73,-1.77 -1.56,-1.36 -2.34,-2.33 -2.27,-4.26 a 6.58,6.58 0 0 1 1.47,-3.53 8.94,8.94 0 0 1 3.24,-2.26 17.13,17.13 0 0 1 4.86,-1.52 c 2.15,-0.35 5.14,-0.7 9.15,-1 a 13.3,13.3 0 0 0 4,-0.9 c 0.84,-0.33 1.16,-0.69 1.29,-1.37 0.23,-1.22 -0.17,-1.92 -1.79,-2.24 -4.38,-0.86 -12.58,0.56 -16.81,1.61 l 2.3,-6.2 a 111.19,111.19 0 0 1 16.3,-1.34 c 8.74,0 11.54,2.5 11.46,5.71 z"
       id="path32"
       style="fill:#ffffff"
       inkscape:connector-curvature="0" />
    <path
       class="cls-1"
       d="m 136.48,110.07 4.22,-23.8 h 11.63 l -4.21,23.8 h -11.64 m 4.86,-29.31 c 0.35,-2 3.43,-3.54 6.88,-3.54 3.45,0 6,1.59 5.64,3.54 -0.36,1.95 -3.43,3.54 -6.86,3.54 -3.43,0 -6,-1.59 -5.66,-3.55 z"
       id="path34"
       style="fill:#ffffff"
       inkscape:connector-curvature="0" />
    <g
       class="cls-5"
       clip-path="url(#clip-path-3)"
       id="g40"
       style="fill:#ffffff">
      <path
         class="cls-1"
         d="m 193.65,99.12 a 20.8,20.8 0 0 1 -2,0.56 c -0.82,0.19 -2.32,0.44 -4.52,0.8 a 7.67,7.67 0 0 0 -3.13,1 2.44,2.44 0 0 0 -1,1.53 1.51,1.51 0 0 0 0.67,1.58 5.33,5.33 0 0 0 2.93,0.6 9.84,9.84 0 0 0 3,-0.46 7.32,7.32 0 0 0 2.46,-1.3 4,4 0 0 0 1,-1.54 20.72,20.72 0 0 0 0.61,-2.75 m 12.54,-7.81 a 28.71,28.71 0 0 1 -0.57,4 l -2.11,11.93 a 2.23,2.23 0 0 0 1.18,2.46 l -0.07,0.41 h -12.15 l -0.09,-3 a 23.83,23.83 0 0 1 -5.84,2.49 20.83,20.83 0 0 1 -5.85,0.72 c -3.92,0 -6.15,-0.39 -7.71,-1.76 -1.56,-1.37 -2.35,-2.33 -2.27,-4.26 a 6.36,6.36 0 0 1 1.47,-3.54 8.8,8.8 0 0 1 3.24,-2.26 18,18 0 0 1 4.86,-1.38 c 2.16,-0.33 5.16,-0.7 9.17,-1 a 13.73,13.73 0 0 0 4,-0.88 c 0.85,-0.33 1.18,-0.69 1.31,-1.38 0.22,-1.2 -0.17,-1.92 -1.78,-2.24 -4.4,-0.87 -12.58,0.56 -16.81,1.61 l 2.29,-6.2 a 110.67,110.67 0 0 1 16.31,-1.34 c 8.68,-0.1 11.47,2.4 11.4,5.6 z"
         id="path36"
         style="fill:#ffffff"
         inkscape:connector-curvature="0" />
      <path
         class="cls-1"
         d="m 64.19,101.51 a 42.61,42.61 0 0 1 -9.66,1 c -5.56,0 -10,-2.76 -9.73,-7.82 C 45,91.36 49,84.25 59.1,84.25 a 16.57,16.57 0 0 1 9,2.48 l 1.47,-8.27 A 28,28 0 0 0 58.06,76.52 C 44.82,76.66 32,82.71 30.47,95 c -1.61,12.49 13.64,15.63 20.41,15.6 3.91,0 8,-0.17 11.77,-0.57 l 1.54,-8.52"
         id="path38"
         style="fill:#ffffff"
         inkscape:connector-curvature="0" />
    </g>
    <path
       class="cls-1"
       d="m 158.74,86.13 0.84,-4.85 12.17,-2.65 -1.29,7.49 h 6 l -1.13,4.8 H 169.5 L 166,110 c 0,0 -11.72,-0.08 -11.76,0 l 3.5,-19.1 h -4.44 l 0.9,-4.83 h 4.54"
       id="path42"
       style="fill:#ffffff"
       inkscape:connector-curvature="0" />
    <polyline
       class="cls-1"
       points="218 110.05 206.15 110.07 212.12 76.86 223.66 77.18 218 110.05"
       id="polyline44"
       style="fill:#ffffff" />
    <path
       class="cls-1"
       d="m 121.09,91.84 a 6.71,6.71 0 0 0 -4.09,1.39 6.22,6.22 0 0 0 -2.3,4.07 c -0.36,2.08 -0.15,3.57 0.67,4.49 a 4.62,4.62 0 0 0 3.6,1.37 7,7 0 0 0 3,-0.59 5.82,5.82 0 0 0 2.28,-2 7.81,7.81 0 0 0 1.28,-3.14 c 0.33,-1.88 0.05,-3.29 -0.82,-4.22 a 4.46,4.46 0 0 0 -3.53,-1.42 m -21.28,26.49 5.66,-31.9 h 10.22 L 115,90.45 a 9.72,9.72 0 0 1 4.26,-3 17.39,17.39 0 0 1 6.6,-1.4 c 2.67,0 4.31,0.14 6.31,1.18 a 8.42,8.42 0 0 1 4.12,4.52 11.85,11.85 0 0 1 0.51,6.48 14.08,14.08 0 0 1 -5.75,9.31 c -3.12,2.27 -5.93,2.87 -9.94,2.89 a 15.28,15.28 0 0 1 -3.59,-0.39 8.17,8.17 0 0 1 -2.32,-0.93 10.74,10.74 0 0 1 -1.91,-1.73 l -1.9,10.93 z"
       id="path46"
       style="fill:#ffffff"
       inkscape:connector-curvature="0" />
    <path
       class="cls-1"
       d="m 311.13,94.76 c -0.07,-1.92 -1,-3.21 -3,-3.21 -4.77,0 -9.85,9.35 -10.73,13.11 7.83,0 13.93,-4.66 13.73,-9.91 m 1,14.65 0.92,0.62 c -2.33,4.74 -7.07,8.55 -12.64,8.55 -4.55,0 -8.29,-3 -8.48,-8.72 -0.37,-10.2 9.19,-19.68 17,-19.68 3.36,0 6.47,1.47 6.61,5.08 0.29,8.11 -11.1,10.59 -18.61,10.76 a 9,9 0 0 0 -0.29,3 c 0.12,3.36 2.16,6.19 6.37,6.19 3.67,0.02 7.31,-2.9 9.15,-5.78 z"
       id="path48"
       style="fill:#ffffff"
       inkscape:connector-curvature="0" />
    <path
       class="cls-1"
       d="m 265.48,94.5 c 0.81,-0.1 2.11,-0.25 2.67,-0.25 0.85,0 1.66,0.16 1.7,1 0,0.5 -0.89,4.12 -1.08,5 l -1.82,8 c -0.73,3.28 -1.53,6.71 -2.23,9.41 h 4.66 L 272,105 c 8,-8.33 11.07,-11 13,-11 a 1.35,1.35 0 0 1 1.47,1.46 25.11,25.11 0 0 1 -1.18,5.75 l -2.67,9.24 a 19.17,19.17 0 0 0 -1,5.29 2.79,2.79 0 0 0 3.13,2.93 c 3.41,0 5.88,-3.55 8,-7 l -0.63,-1.15 c -0.88,1.41 -2.9,4.47 -4.49,4.47 -0.5,0 -1,-0.34 -1,-1.18 a 13.74,13.74 0 0 1 0.72,-3.77 l 3,-10.83 a 26.71,26.71 0 0 0 1.16,-5.93 2.78,2.78 0 0 0 -3.06,-3 c -3.07,0 -7.14,2.24 -15.77,12.17 h -0.12 l 1.09,-4.84 c 0.59,-2.65 1.17,-5.41 1.73,-7.32 a 77.49,77.49 0 0 1 -9.9,2.79 v 1.52"
       id="path50"
       style="fill:#ffffff"
       inkscape:connector-curvature="0" />
  </g>
</svg>
