<?xml version="1.0" encoding="UTF-8" standalone="no"?>
<svg
   xmlns:dc="http://purl.org/dc/elements/1.1/"
   xmlns:cc="http://creativecommons.org/ns#"
   xmlns:rdf="http://www.w3.org/1999/02/22-rdf-syntax-ns#"
   xmlns:svg="http://www.w3.org/2000/svg"
   xmlns="http://www.w3.org/2000/svg"
   xmlns:sodipodi="http://sodipodi.sourceforge.net/DTD/sodipodi-0.dtd"
   xmlns:inkscape="http://www.inkscape.org/namespaces/inkscape"
   viewBox="0 0 345 171"
   version="1.1"
   id="svg14"
   sodipodi:docname="custom2.svg"
   inkscape:version="0.92.3 (2405546, 2018-03-11)">
  <metadata
     id="metadata18">
    <rdf:RDF>
      <cc:Work
         rdf:about="">
        <dc:format>image/svg+xml</dc:format>
        <dc:type
           rdf:resource="http://purl.org/dc/dcmitype/StillImage" />
        <dc:title>nginx.com-CustomerSection-logos_345x171_R01mw</dc:title>
      </cc:Work>
    </rdf:RDF>
  </metadata>
  <sodipodi:namedview
     pagecolor="#ffffff"
     bordercolor="#666666"
     borderopacity="1"
     objecttolerance="10"
     gridtolerance="10"
     guidetolerance="10"
     inkscape:pageopacity="0"
     inkscape:pageshadow="2"
     inkscape:window-width="1920"
     inkscape:window-height="951"
     id="namedview16"
     showgrid="false"
     inkscape:zoom="1.3130435"
     inkscape:cx="172.5"
     inkscape:cy="85.500002"
     inkscape:window-x="0"
     inkscape:window-y="27"
     inkscape:window-maximized="1"
     inkscape:current-layer="svg14" />
  <defs
     id="defs4">
    <style
       id="style2">.cls-1{fill:none;}.cls-2{fill:#fff;}</style>
  </defs>
  <title
     id="title6">nginx.com-CustomerSection-logos_345x171_R01mw</title>
  <g
     id="Layer_1"
     data-name="Layer 1"
     style="fill:#ffffff"
     transform="translate(-3.0463522,-3.8079447)">
    <path
       class="cls-2"
       d="m 178.76,45.17 v 0 a 44.62,44.62 0 0 0 -7.27,-0.63 43.79,43.79 0 0 0 -7.24,0.63 c -0.37,0.06 -0.51,-0.29 -0.23,-0.48 l 7.47,-5.7 c 0,0 7.25,5.5 7.48,5.7 0.23,0.2 0.13,0.54 -0.21,0.48 z m -12.5,35.67 v 0 a 0.81,0.81 0 0 0 -0.48,0.49 c 1.51,1.17 2.54,3.82 5.7,3.82 3.16,0 4.22,-2.65 5.73,-3.82 a 0.89,0.89 0 0 0 -0.48,-0.49 24.43,24.43 0 0 1 -5.25,0.49 24,24 0 0 1 -5.22,-0.49 z m 5.22,-4.44 v 0 c -0.88,0 -1.05,-0.32 -1.65,-0.32 a 3.14,3.14 0 0 0 -1.94,0.85 1,1 0 0 0 0.26,0.57 c 1.28,0.2 1.85,0.91 3.34,0.91 1.49,0 2.05,-0.71 3.34,-0.91 a 0.89,0.89 0 0 0 0.26,-0.57 3,3 0 0 0 -1.91,-0.85 c -0.61,0 -0.81,0.32 -1.7,0.32 z M 243.55,90 v 0 c -0.08,1.74 -0.26,3.45 -0.46,5.13 -8.16,1.37 -11.1,-5.93 -19.46,-5.56 a 48.71,48.71 0 0 1 1.2,5.44 c 6.9,0 9.7,6.44 17.38,5.47 -0.4,2 -0.89,3.93 -1.46,5.84 -6.08,0.6 -8.22,-5.44 -15.23,-5.27 0.06,1 0.08,2 0.08,3 0,0.57 0,1.14 0,1.68 6,-0.06 7.93,5.47 13.64,5.21 a 57,57 0 0 1 -2.37,5.67 c -4.11,-0.2 -5.51,-5.47 -11.75,-5 -0.2,1.34 -0.43,2.68 -0.71,4 5.42,-0.37 6.59,4.62 10.47,5 -1,1.8 -2.05,3.56 -3.19,5.24 -2.28,-1.22 -4.28,-4.93 -8.64,-5.16 0.43,-1.37 0.82,-2.79 1.17,-4.19 a 18,18 0 0 1 -12,-4.9 c 1.2,-6.84 -9.42,-13.79 -9.42,-18.8 0,-5.44 2.77,-8.44 2.77,-15.79 a 22.91,22.91 0 0 0 -6.65,-15.36 12.73,12.73 0 0 0 -2.48,-2 c 3.68,4.53 6.48,9.92 6.48,16.13 0,6.9 -3.19,10.54 -3.19,16.92 0,6.38 9.27,11.9 9.27,18.45 0,2.59 -0.82,5.13 -3.56,10.09 4.19,4.19 9.64,6.47 13.18,6.47 a 2.07,2.07 0 0 0 2.17,-1.25 c 0.34,-0.77 0.68,-1.57 1,-2.34 3.8,0.14 5.54,3.59 7.62,5 -1.14,1.54 -2.37,3 -3.62,4.47 -1.4,-1.57 -3.31,-4.16 -6.07,-4.9 -0.49,1 -1,1.91 -1.57,2.85 2.4,0.63 4,3 5.28,4.62 a 57.4,57.4 0 0 1 -4.25,4 13.57,13.57 0 0 0 -4,-4.22 c -0.57,0.8 -1.2,1.6 -1.83,2.37 a 12.29,12.29 0 0 1 3.34,3.93 c -1.69,1.37 -3.45,2.65 -5.28,3.88 -0.91,-7.32 -10.9,-12.34 -8.22,-20.83 a 11,11 0 0 0 -1.94,5.61 c 0,6.15 6.56,11 7.08,17.15 -1.34,0.8 -2.74,1.57 -4.17,2.28 -0.23,-6.7 -7.16,-14 -7.16,-19.57 0,-6.15 8.08,-12.34 8.08,-19.6 0,-7.26 -9.33,-12.28 -9.33,-18.66 0,-6.38 4,-10.06 4,-18.2 A 21.87,21.87 0 0 0 192.51,58.37 12.32,12.32 0 0 0 190,56.65 c 4.13,5 6.53,9.49 6.53,16.33 0,7.69 -4.53,11.94 -4.53,19.46 0,7.52 9.13,11.71 9.13,18.72 0,7.01 -8.5,12.94 -8.5,20.15 0,6.55 7.5,13.11 7.62,20.88 -1.63,0.71 -3.31,1.37 -5,2 1,-7.86 -7.47,-16 -7.47,-22.39 0,-7 8.82,-13 8.82,-20.6 0,-7.6 -9,-11.05 -9,-18.83 0,-7.78 5.51,-12.05 5.51,-20.6 A 20.84,20.84 0 0 0 185,55.31 l -0.31,-0.26 c -0.46,-0.31 -0.83,0.09 -0.49,0.49 a 22.07,22.07 0 0 1 5.22,14.93 c 0,7.86 -6.31,14.22 -6.31,21.82 0,8.94 8.47,11.51 8.47,18.86 0,7.35 -9.1,13.25 -9.1,21.06 0,7.24 8.62,15.27 7.13,23.65 -1.71,0.43 -3.48,0.83 -5.25,1.14 1.63,-10.4 -6.82,-17.89 -6.82,-24.67 0,-7.38 9.42,-14 9.42,-21.17 0,-6.78 -6.76,-9 -7.65,-16 a 1.64,1.64 0 0 0 -1.94,-1.48 c -1.37,0.25 -3.14,1.17 -5.91,1.17 -2.77,0 -4.46,-0.85 -5.88,-1.13 a 1.66,1.66 0 0 0 -1.94,1.48 c -0.88,7 -7.64,9.17 -7.64,16 0,7.21 9.44,13.79 9.44,21.17 0,6.78 -8.47,14.27 -6.85,24.67 -1.77,-0.31 -3.54,-0.71 -5.25,-1.14 -1.48,-8.38 7.13,-16.41 7.13,-23.65 0,-7.81 -9.1,-13.68 -9.1,-21.06 0,-7.38 8.5,-9.91 8.5,-18.86 0,-7.61 -6.33,-14 -6.33,-21.82 a 22,22 0 0 1 5.25,-14.93 c 0.31,-0.4 -0.06,-0.8 -0.51,-0.49 l -0.32,0.26 a 20.85,20.85 0 0 0 -8.13,16.41 c 0,8.55 5.51,12.85 5.51,20.6 0,7.75 -9,11.29 -9,18.83 0,7.54 8.82,13.59 8.82,20.6 0,6.41 -8.45,14.53 -7.48,22.39 -1.71,-0.6 -3.37,-1.25 -5,-2 0.11,-7.78 7.62,-14.33 7.62,-20.88 0,-7.21 -8.5,-13.11 -8.5,-20.15 0,-7.04 9.13,-11.2 9.13,-18.72 0,-7.52 -4.52,-11.76 -4.52,-19.43 0,-6.84 2.4,-11.37 6.56,-16.33 a 12.44,12.44 0 0 0 -2.48,1.71 21.87,21.87 0 0 0 -7.25,15.93 c 0,8.15 4,11.82 4,18.2 0,6.38 -9.3,11.43 -9.3,18.66 0,7.23 8.06,13.43 8.06,19.59 0,5.53 -7,12.88 -7.19,19.57 -1.43,-0.71 -2.8,-1.48 -4.16,-2.28 0.51,-6.13 7.07,-11 7.07,-17.15 a 11,11 0 0 0 -1.94,-5.61 c 2.71,8.49 -7.3,13.51 -8.21,20.83 -1.8,-1.23 -3.57,-2.51 -5.28,-3.88 a 12.37,12.37 0 0 1 3.37,-3.93 c -0.66,-0.77 -1.26,-1.57 -1.85,-2.37 a 13.94,13.94 0 0 0 -4,4.22 c -1.45,-1.28 -2.88,-2.62 -4.25,-4 1.26,-1.57 2.91,-4 5.28,-4.62 -0.54,-0.94 -1.08,-1.88 -1.57,-2.85 -2.77,0.74 -4.65,3.33 -6.08,4.9 -1.26,-1.45 -2.48,-2.93 -3.62,-4.47 2.11,-1.37 3.85,-4.82 7.65,-5 0.31,0.77 0.63,1.57 1,2.34 a 2,2 0 0 0 2.17,1.25 c 3.51,0 9,-2.28 13.15,-6.47 -2.71,-5 -3.54,-7.49 -3.54,-10.09 0,-6.55 9.33,-12.08 9.33,-18.43 0,-6.35 -3.22,-10 -3.22,-16.92 0,-6.21 2.83,-11.6 6.48,-16.13 a 12.92,12.92 0 0 0 -2.48,2 23,23 0 0 0 -6.63,15.33 c 0,7.35 2.74,10.34 2.74,15.79 0,5 -10.61,12 -9.41,18.8 a 18.06,18.06 0 0 1 -12,4.9 c 0.34,1.39 0.74,2.82 1.17,4.19 -4.34,0.23 -6.33,3.94 -8.64,5.16 -1.14,-1.68 -2.2,-3.45 -3.19,-5.24 3.88,-0.4 5,-5.39 10.47,-5 -0.29,-1.31 -0.51,-2.65 -0.71,-4 -6.22,-0.43 -7.65,4.84 -11.75,5 -0.86,-1.85 -1.65,-3.73 -2.37,-5.67 5.71,0.26 7.65,-5.27 13.64,-5.21 0,-0.54 0,-1.11 0,-1.68 0,-1 0,-2 0.09,-3 -7,-0.17 -9.16,5.87 -15.23,5.27 -0.54,-1.91 -1,-3.87 -1.45,-5.84 7.67,1 10.47,-5.5 17.37,-5.47 a 48.57,48.57 0 0 1 1.23,-5.44 c -8.39,-0.37 -11.3,6.92 -19.46,5.56 -0.23,-1.68 -0.37,-3.39 -0.46,-5.13 9.47,1.09 13,-6.72 21.68,-5.75 a 52.29,52.29 0 0 1 2.82,-6 c -10.84,-1.91 -14.52,7.15 -24.59,5.75 a 72.17,72.17 0 0 1 144.27,0 c -10.1,1.4 -13.78,-7.66 -24.62,-5.75 a 47.59,47.59 0 0 1 2.83,6 C 230.48,83.29 234,91.1 243.55,90 Z M 140.48,59.81 v 0 a 18.76,18.76 0 0 0 -17.23,1.85 18.85,18.85 0 0 0 -7.59,-12.4 0.65,0.65 0 0 0 -1.06,0.63 c 0.83,10.8 -5.48,20.14 -13.24,28.38 8,2.39 14.81,-7.89 25.19,-4.3 a 53.87,53.87 0 0 1 13.93,-14.16 z m 31,-6.53 v 0 c -6.7,0 -12.29,3.76 -13.78,8.66 -0.11,0.37 0.06,0.63 0.48,0.43 a 9.84,9.84 0 0 1 4.05,-0.8 8.36,8.36 0 0 1 6.56,2.73 11.78,11.78 0 0 1 0,6.81 c -1.11,-0.25 -1.51,-1.14 -2.63,-1.14 -1.12,0 -1.94,0.77 -3.79,0.77 -1.85,0 -2.08,-0.86 -3.31,-0.86 -1.45,0 -1.71,1.49 -1.71,3.14 0,7.46 6.85,17.72 14.15,17.72 7.3,0 14.13,-10.24 14.13,-17.74 0,-1.65 -0.34,-3.11 -1.83,-3.31 a 4.61,4.61 0 0 1 -3.17,1 c -1.88,0 -2.4,-0.77 -3.48,-0.77 -1.31,0 -1.2,2.79 -2.77,3 a 13.14,13.14 0 0 1 -0.23,-8.63 8.38,8.38 0 0 1 6.56,-2.73 10,10 0 0 1 4.08,0.8 c 0.43,0.2 0.57,-0.06 0.46,-0.43 -1.44,-4.93 -7.06,-8.64 -13.77,-8.64 z M 182.15,64 v 0 a 6.3,6.3 0 0 0 -4.68,1.82 1.82,1.82 0 0 0 0.06,1.23 c 2.91,-1 5.48,-1 6.73,0.37 a 2.21,2.21 0 0 0 0.86,-1.77 c 0,-0.99 -0.97,-1.65 -2.97,-1.65 z m -23.42,3.42 v 0 c 1.4,-1.42 4.37,-1.37 7.45,-0.23 0.11,-1.51 -2.62,-3.19 -5.36,-3.19 -2,0 -3,0.68 -3,1.65 a 2.26,2.26 0 0 0 0.91,1.74 z m 46.16,-25.24 v 0 a 23.88,23.88 0 0 0 -13.61,5.21 53.93,53.93 0 0 1 6.13,-12.17 c -6.73,0.71 -12.38,3.16 -16.49,7.38 l -3.19,-8.44 7.13,-6.3 -9.56,-0.65 -3.83,-8.89 -3.82,8.89 -9.56,0.65 7.16,6.3 -3.25,8.42 c -4.11,-4.22 -9.73,-6.67 -16.46,-7.38 a 54,54 0 0 1 6.1,12.17 23.81,23.81 0 0 0 -13.61,-5.21 62.83,62.83 0 0 1 8.07,13.08 0.85,0.85 0 0 0 1.28,0.43 54.32,54.32 0 0 1 48.1,0 0.86,0.86 0 0 0 1.29,-0.43 64,64 0 0 1 8.12,-13.09 z M 216.44,74 v 0 c 10.36,-3.59 17.17,6.7 25.19,4.3 C 233.88,70 227.54,60.7 228.4,49.9 a 0.67,0.67 0 0 0 -1.08,-0.63 18.91,18.91 0 0 0 -7.56,12.4 18.77,18.77 0 0 0 -17.23,-1.85 54.74,54.74 0 0 1 13.91,14.18 z"
       id="path11"
       style="fill:#ffffff"
       inkscape:connector-curvature="0" />
  </g>
</svg>
