<?xml version="1.0" encoding="UTF-8" standalone="no"?>
<svg
   xmlns:dc="http://purl.org/dc/elements/1.1/"
   xmlns:cc="http://creativecommons.org/ns#"
   xmlns:rdf="http://www.w3.org/1999/02/22-rdf-syntax-ns#"
   xmlns:svg="http://www.w3.org/2000/svg"
   xmlns="http://www.w3.org/2000/svg"
   xmlns:sodipodi="http://sodipodi.sourceforge.net/DTD/sodipodi-0.dtd"
   xmlns:inkscape="http://www.inkscape.org/namespaces/inkscape"
   viewBox="0 0 345 171"
   version="1.1"
   id="svg54"
   sodipodi:docname="custom1.svg"
   inkscape:version="0.92.3 (2405546, 2018-03-11)">
  <metadata
     id="metadata58">
    <rdf:RDF>
      <cc:Work
         rdf:about="">
        <dc:format>image/svg+xml</dc:format>
        <dc:type
           rdf:resource="http://purl.org/dc/dcmitype/StillImage" />
        <dc:title>nginx.com-CustomerSection-logos_345x171_R01mw</dc:title>
      </cc:Work>
    </rdf:RDF>
  </metadata>
  <sodipodi:namedview
     pagecolor="#ffffff"
     bordercolor="#666666"
     borderopacity="1"
     objecttolerance="10"
     gridtolerance="10"
     guidetolerance="10"
     inkscape:pageopacity="0"
     inkscape:pageshadow="2"
     inkscape:window-width="1920"
     inkscape:window-height="951"
     id="namedview56"
     showgrid="false"
     inkscape:zoom="1.3130435"
     inkscape:cx="-5.331123"
     inkscape:cy="85.500002"
     inkscape:window-x="0"
     inkscape:window-y="27"
     inkscape:window-maximized="1"
     inkscape:current-layer="svg54" />
  <defs
     id="defs4">
    <style
       id="style2">.cls-1{fill:none;}.cls-2{fill:#fff;}</style>
  </defs>
  <title
     id="title6">nginx.com-CustomerSection-logos_345x171_R01mw</title>
  <g
     id="Layer_1"
     data-name="Layer 1"
     style="fill:#ffffff"
     transform="translate(3.1390672,-4.5695282)">
    <path
       class="cls-2"
       d="m 33.45,72.92 v 14.51 a 9.44,9.44 0 0 1 -0.34,2.63 9.19,9.19 0 0 1 -1.11,2.4 v 0 a 9.84,9.84 0 0 1 -1.56,1.92 6.91,6.91 0 0 1 -1.92,1.3 v 0 a 7,7 0 0 1 -2.78,0.5 H 25.2 a 7,7 0 0 1 -2.78,-0.5 v 0 a 6.92,6.92 0 0 1 -1.92,-1.3 9.82,9.82 0 0 1 -1.56,-1.92 v 0 A 9.17,9.17 0 0 1 17.85,90.07 9.44,9.44 0 0 1 17.51,87.44 V 72.92 a 1.755,1.755 0 0 0 -3.51,0 v 14.51 a 13,13 0 0 0 0.48,3.6 12.68,12.68 0 0 0 1.5,3.3 v 0 a 13.32,13.32 0 0 0 2.12,2.61 10.42,10.42 0 0 0 2.9,2 v 0 a 10.4,10.4 0 0 0 4.21,0.8 h 0.54 a 10.4,10.4 0 0 0 4.21,-0.8 v 0 a 10.42,10.42 0 0 0 2.9,-2 13.34,13.34 0 0 0 2.14,-2.61 v 0 a 12.7,12.7 0 0 0 1.5,-3.3 13,13 0 0 0 0.48,-3.6 V 72.92 a 1.755,1.755 0 0 0 -3.51,0 z"
       id="path11"
       style="fill:#ffffff"
       inkscape:connector-curvature="0" />
    <path
       class="cls-2"
       d="m 168.52,72.92 v 14.51 c 0,0.77 0,1.68 0,2.66 a 14.77,14.77 0 0 0 0.19,2.56 7.19,7.19 0 0 0 1,2.61 v 0 a 12.71,12.71 0 0 0 3,3.35 l 0.15,0.1 a 8.24,8.24 0 0 0 1.23,0.59 8,8 0 0 0 2.86,0.57 h 0.93 a 8,8 0 0 0 2.86,-0.57 8.22,8.22 0 0 0 1.23,-0.59 l 0.15,-0.1 a 12.69,12.69 0 0 0 3,-3.35 v 0 a 7.21,7.21 0 0 0 1,-2.62 14.84,14.84 0 0 0 0.19,-2.56 c 0,-1 0,-1.88 0,-2.65 V 72.92 a 1.755,1.755 0 1 0 -3.51,0 v 14.51 c 0,0.9 0,1.8 0,2.65 a 11.47,11.47 0 0 1 -0.13,2 3.75,3.75 0 0 1 -0.47,1.36 v 0 a 9.2,9.2 0 0 1 -2.16,2.43 l 1.06,1.39 -0.91,-1.5 0.59,1 -0.58,-1 v 0 l 0.59,1 -0.58,-1 v 0 a 5.38,5.38 0 0 1 -0.8,0.36 4.41,4.41 0 0 1 -1.46,0.29 h -0.93 a 4.55,4.55 0 0 1 -1.58,-0.33 5.74,5.74 0 0 1 -0.53,-0.24 l -0.13,-0.07 v 0 l -0.58,1 0.59,-1 v 0 l -0.58,1 0.59,-1 -0.91,1.5 1.07,-1.39 a 9.22,9.22 0 0 1 -2.16,-2.43 v 0 a 3.73,3.73 0 0 1 -0.47,-1.35 11.4,11.4 0 0 1 -0.13,-1.95 c 0,-0.85 0,-1.76 0,-2.66 V 72.92 a 1.755,1.755 0 1 0 -3.51,0 z"
       id="path13"
       style="fill:#ffffff"
       inkscape:connector-curvature="0" />
    <path
       class="cls-2"
       d="M 45,98 V 74.67 h 2.75 v -1.75 l -0.05,1.75 v 0 0 0 a 11,11 0 0 1 1.1,0.11 6.26,6.26 0 0 1 0.79,0.16 l 0.26,0.09 h 0.07 v 0 L 50,75 49.95,75.07 v 0 L 50,75 49.95,75.07 v 0 c 0.25,0.17 0.5,0.34 0.75,0.55 a 4.13,4.13 0 0 1 1,1.19 4.2,4.2 0 0 1 0.5,2.11 11.52,11.52 0 0 1 -0.12,2.08 3.21,3.21 0 0 1 -0.34,1 1.91,1.91 0 0 1 -0.41,0.51 3.28,3.28 0 0 1 -1.32,0.64 10.67,10.67 0 0 1 -2.8,0.31 1.75,1.75 0 0 0 -1.54,2.54 l 7.11,12.82 a 1.7546296,1.7546296 0 1 0 3.07,-1.7 l -7.11,-12.8 -1.53,0.85 v 1.75 a 13,13 0 0 0 4.31,-0.61 6.34,6.34 0 0 0 2.27,-1.31 5.45,5.45 0 0 0 1.09,-1.44 7.16,7.16 0 0 0 0.71,-2.35 16.55,16.55 0 0 0 0.12,-2.26 8.11,8.11 0 0 0 -0.44,-2.72 7.22,7.22 0 0 0 -1.74,-2.73 8.94,8.94 0 0 0 -0.92,-0.79 C 52.33,72.5 52.09,72.34 51.93,72.23 v 0 a 4.7,4.7 0 0 0 -1.4,-0.62 11.11,11.11 0 0 0 -1.82,-0.33 c -0.5,-0.05 -0.86,-0.06 -0.89,-0.06 h -4.56 a 1.75,1.75 0 0 0 -1.75,1.75 V 98 A 1.75,1.75 0 0 0 45,98 Z"
       id="path15"
       style="fill:#ffffff"
       inkscape:connector-curvature="0" />
    <path
       class="cls-2"
       d="M 299.71,98 V 74.67 h 2.75 v -1.75 l -0.05,1.75 v 0 0 0 a 11,11 0 0 1 1.1,0.11 6.26,6.26 0 0 1 0.79,0.16 l 0.26,0.09 h 0.07 v 0 -0.08 0.07 0 -0.08 0.07 0 c 0.25,0.17 0.5,0.34 0.75,0.55 a 4.13,4.13 0 0 1 1,1.19 4.2,4.2 0 0 1 0.5,2.11 11.52,11.52 0 0 1 -0.14,2.05 3.21,3.21 0 0 1 -0.34,1 1.91,1.91 0 0 1 -0.41,0.51 3.28,3.28 0 0 1 -1.32,0.64 10.67,10.67 0 0 1 -2.8,0.31 1.75,1.75 0 0 0 -1.5,2.63 l 7.11,12.82 a 1.7546296,1.7546296 0 1 0 3.07,-1.7 l -7.11,-12.82 -1.53,0.85 v 1.75 a 13,13 0 0 0 4.31,-0.61 6.34,6.34 0 0 0 2.27,-1.29 5.45,5.45 0 0 0 1.09,-1.44 7.16,7.16 0 0 0 0.71,-2.35 16.54,16.54 0 0 0 0.12,-2.26 8.11,8.11 0 0 0 -0.44,-2.72 7.22,7.22 0 0 0 -1.74,-2.73 9,9 0 0 0 -0.92,-0.79 c -0.28,-0.21 -0.52,-0.37 -0.68,-0.48 v 0 a 4.7,4.7 0 0 0 -1.41,-0.62 11.11,11.11 0 0 0 -1.82,-0.33 c -0.5,-0.05 -0.86,-0.06 -0.89,-0.06 H 298 a 1.75,1.75 0 0 0 -1.75,1.75 V 98 a 1.755,1.755 0 1 0 3.51,0 z"
       id="path17"
       style="fill:#ffffff"
       inkscape:connector-curvature="0" />
    <path
       class="cls-2"
       d="m 62.63,98 h 1.75 V 72.92 h -1.75 v 1.75 h 0.69 a 14.06,14.06 0 0 1 3.41,0.28 4.43,4.43 0 0 1 1.24,0.51 3.92,3.92 0 0 1 1,0.93 v 0 a 2.64,2.64 0 0 1 0.45,1 5.46,5.46 0 0 1 0.16,1.36 c 0,0.15 0,0.3 0,0.45 v 0 a 3,3 0 0 1 -0.1,0.63 1.93,1.93 0 0 1 -0.31,0.62 10.13,10.13 0 0 1 -0.78,0.91 v 0 a 4.6,4.6 0 0 1 -2.14,1.38 11.17,11.17 0 0 1 -3,0.36 1.755349,1.755349 0 1 0 0.07,3.51 v 0 a 14.18,14.18 0 0 1 3.77,0.56 7,7 0 0 1 2.27,1.11 3.3,3.3 0 0 1 1.22,1.72 6.9,6.9 0 0 1 0.25,1.82 5.47,5.47 0 0 1 -0.41,2.18 3.91,3.91 0 0 1 -1.19,1.57 v 0 a 3.45,3.45 0 0 1 -1.22,0.53 16.6,16.6 0 0 1 -1.84,0.33 v 0 l 0.17,1.18 -0.09,-1.19 h -0.08 l 0.17,1.18 -0.09,-1.19 v 0.27 -0.27 0 0.27 -0.27 H 65.7 63.81 63.09 63 l -0.15,1.12 0.29,-1.09 H 63 l -0.15,1.12 0.29,-1.09 -0.46,1.53 0.78,-1.46 A 1.59,1.59 0 0 0 63.1,96.4 L 62.68,98 63.46,96.54 62.64,98 63.91,96.82 A 1.7,1.7 0 0 0 63.46,96.47 L 62.64,98 63.91,96.82 62.63,98 64.21,97.26 A 1.74,1.74 0 0 0 63.9,96.81 L 62.63,98 64.21,97.26 62.63,98 h 1.75 A 1.76,1.76 0 0 0 64.22,97.26 L 62.63,98 h -1.76 a 1.77,1.77 0 0 0 0.13,0.67 1.77,1.77 0 0 0 0.86,0.91 1.81,1.81 0 0 0 0.33,0.12 l 0.27,0.06 h 0.32 c 0.36,0 0.85,0 1.39,0.06 h 1.53 0.71 0.26 v 0 a 19.64,19.64 0 0 0 2.23,-0.41 6.84,6.84 0 0 0 2.48,-1.16 v 0 a 7.42,7.42 0 0 0 2.27,-3 9,9 0 0 0 0.7,-3.53 A 10.4,10.4 0 0 0 74,89.07 6.83,6.83 0 0 0 71.57,85.48 9.81,9.81 0 0 0 69,84.07 15.64,15.64 0 0 0 65.4,83.2 17.12,17.12 0 0 0 63.34,83.06 h -0.1 a 1.755349,1.755349 0 0 0 0.07,3.51 14.44,14.44 0 0 0 4,-0.51 A 8.15,8.15 0 0 0 71,83.7 v 0 a 9.88,9.88 0 0 0 1.36,-1.7 5.31,5.31 0 0 0 0.5,-1.18 6.48,6.48 0 0 0 0.23,-1.36 v 0 c 0,-0.22 0,-0.45 0,-0.69 a 8.94,8.94 0 0 0 -0.28,-2.26 6.11,6.11 0 0 0 -1.09,-2.25 v 0 a 7.44,7.44 0 0 0 -2,-1.75 8.59,8.59 0 0 0 -3.31,-1.14 22,22 0 0 0 -3.17,-0.17 H 62.55 A 1.75,1.75 0 0 0 60.8,72.95 V 98 Z"
       id="path19"
       style="fill:#ffffff"
       inkscape:connector-curvature="0" />
    <path
       class="cls-2"
       d="m 79.47,98.06 v 1.75 H 92.6 a 1.75,1.75 0 0 0 1.75,-1.76 V 72.91 A 1.75,1.75 0 0 0 91,72.11 L 77.91,97.25 a 1.75,1.75 0 0 0 1.56,2.57 v -1.76 l 1.56,0.81 9.79,-18.81 V 96.3 H 79.47 v 1.75 l 1.56,0.81 z"
       id="path21"
       style="fill:#ffffff"
       inkscape:connector-curvature="0" />
    <path
       class="cls-2"
       d="M 103.4,98.06 V 79.57 l 10.94,19.3 A 1.75,1.75 0 0 0 117.62,98 V 72.94 a 1.755,1.755 0 1 0 -3.51,0 v 18.42 l -10.94,-19.3 a 1.75,1.75 0 0 0 -3.28,0.87 v 25.13 a 1.755,1.755 0 1 0 3.51,0 z"
       id="path23"
       style="fill:#ffffff"
       inkscape:connector-curvature="0" />
    <path
       class="cls-2"
       d="m 162.06,85.5 h -1.75 a 10.92,10.92 0 1 1 -3.2,-7.72 10.88,10.88 0 0 1 3.2,7.72 h 3.51 a 14.43,14.43 0 1 0 -4.23,10.2 14.39,14.39 0 0 0 4.23,-10.2 z"
       id="path25"
       style="fill:#ffffff"
       inkscape:connector-curvature="0" />
    <path
       class="cls-2"
       d="m 138.82,78.7 18,17 a 1.7543232,1.7543232 0 1 0 2.41,-2.55 l -18,-17 a 1.7543232,1.7543232 0 0 0 -2.41,2.55"
       id="path27"
       style="fill:#ffffff"
       inkscape:connector-curvature="0" />
    <path
       class="cls-2"
       d="m 191.83,74.68 h 13.45 a 1.755,1.755 0 0 0 0,-3.51 h -13.45 a 1.755,1.755 0 0 0 0,3.51"
       id="path29"
       style="fill:#ffffff"
       inkscape:connector-curvature="0" />
    <path
       class="cls-2"
       d="M 196.86,73.15 V 98 a 1.755,1.755 0 1 0 3.51,0 V 73.15 a 1.755,1.755 0 1 0 -3.51,0"
       id="path31"
       style="fill:#ffffff"
       inkscape:connector-curvature="0" />
    <path
       class="cls-2"
       d="m 239.14,74.68 h 13.45 a 1.755,1.755 0 1 0 0,-3.51 h -13.45 a 1.755,1.755 0 0 0 0,3.51"
       id="path33"
       style="fill:#ffffff"
       inkscape:connector-curvature="0" />
    <path
       class="cls-2"
       d="M 244.18,73.15 V 98 a 1.755,1.755 0 0 0 3.51,0 V 73.15 a 1.755,1.755 0 0 0 -3.51,0"
       id="path35"
       style="fill:#ffffff"
       inkscape:connector-curvature="0" />
    <path
       class="cls-2"
       d="m 259.67,74.68 h 13.45 a 1.755,1.755 0 1 0 0,-3.51 h -13.45 a 1.755,1.755 0 0 0 0,3.51"
       id="path37"
       style="fill:#ffffff"
       inkscape:connector-curvature="0" />
    <path
       class="cls-2"
       d="M 264.7,73.15 V 98 a 1.755,1.755 0 0 0 3.51,0 V 73.15 a 1.755,1.755 0 0 0 -3.51,0"
       id="path39"
       style="fill:#ffffff"
       inkscape:connector-curvature="0" />
    <path
       class="cls-2"
       d="M 215.39,98 V 74.64 h 6.25 a 1.755,1.755 0 0 0 0,-3.51 h -8 a 1.75,1.75 0 0 0 -1.75,1.75 V 98 a 1.755,1.755 0 1 0 3.51,0 z"
       id="path41"
       style="fill:#ffffff"
       inkscape:connector-curvature="0" />
    <path
       class="cls-2"
       d="m 213.91,85.83 h 7.27 a 1.755,1.755 0 0 0 0,-3.51 h -7.27 a 1.755,1.755 0 0 0 0,3.51"
       id="path43"
       style="fill:#ffffff"
       inkscape:connector-curvature="0" />
    <path
       class="cls-2"
       d="m 229.18,72.84 v 25.41 a 1.755,1.755 0 1 0 3.51,0 V 72.84 a 1.755,1.755 0 1 0 -3.51,0"
       id="path45"
       style="fill:#ffffff"
       inkscape:connector-curvature="0" />
    <path
       class="cls-2"
       d="m 289.57,71.28 h -8 A 1.75,1.75 0 0 0 279.81,73 v 24.88 a 1.75,1.75 0 0 0 1.75,1.75 h 8.19 a 1.755,1.755 0 1 0 0,-3.51 h -6.44 V 74.79 h 6.25 a 1.755,1.755 0 0 0 0,-3.51 z"
       id="path47"
       style="fill:#ffffff"
       inkscape:connector-curvature="0" />
    <path
       class="cls-2"
       d="m 288.65,82.41 h -7 a 1.755,1.755 0 0 0 0,3.51 h 7 a 1.755,1.755 0 0 0 0,-3.51"
       id="path49"
       style="fill:#ffffff"
       inkscape:connector-curvature="0" />
    <path
       class="cls-2"
       d="m 327.3,73.29 a 10.16,10.16 0 0 0 -1.58,-1.13 9.29,9.29 0 0 0 -1.67,-0.78 6.66,6.66 0 0 0 -2.17,-0.38 8.34,8.34 0 0 0 -2.2,0.28 6.41,6.41 0 0 0 -1.76,0.77 5.91,5.91 0 0 0 -2.16,2.47 9,9 0 0 0 -0.79,3.95 7.06,7.06 0 0 0 1,3.78 6.73,6.73 0 0 0 1.7,1.84 11.89,11.89 0 0 0 2.76,1.47 l 1.13,0.45 a 6.48,6.48 0 0 1 0.74,0.34 v 0 c 0.59,0.33 1.21,0.62 1.82,0.94 a 8.49,8.49 0 0 1 2.41,1.7 3.65,3.65 0 0 1 0.69,1.09 3.86,3.86 0 0 1 0.27,1.47 5.42,5.42 0 0 1 -0.41,2.17 4.25,4.25 0 0 1 -1.76,2 5.3,5.3 0 0 1 -2.7,0.71 4.33,4.33 0 0 1 -1.74,-0.42 10.11,10.11 0 0 1 -2.46,-1.65 c -0.32,-0.29 -0.58,-0.54 -0.76,-0.73 l -0.19,-0.21 v 0 0 l -0.4,0.34 0.4,-0.34 v 0 l -0.4,0.34 0.4,-0.34 a 1.75227,1.75227 0 1 0 -2.67,2.27 15.67,15.67 0 0 0 2.26,2.1 12.46,12.46 0 0 0 2.43,1.47 7.8,7.8 0 0 0 3.17,0.73 8.57,8.57 0 0 0 5.77,-2.15 7.74,7.74 0 0 0 1.91,-2.68 8.93,8.93 0 0 0 0.7,-3.56 7.21,7.21 0 0 0 -0.9,-3.58 7.65,7.65 0 0 0 -1.51,-1.89 A 12.45,12.45 0 0 0 326,84.3 c -0.81,-0.43 -1.55,-0.77 -2,-1 v 0 a 16.21,16.21 0 0 0 -2.05,-0.89 7.89,7.89 0 0 1 -2.49,-1.41 2.87,2.87 0 0 1 -0.69,-1 3.91,3.91 0 0 1 -0.29,-1.57 5.94,5.94 0 0 1 0.36,-2.25 2.68,2.68 0 0 1 0.54,-0.85 2.51,2.51 0 0 1 1.08,-0.65 4.69,4.69 0 0 1 1.42,-0.2 3.18,3.18 0 0 1 1,0.19 6.35,6.35 0 0 1 1.46,0.76 c 0.19,0.13 0.35,0.25 0.44,0.33 l 0.11,0.09 v 0 0 l 0.71,-0.79 -0.71,0.79 v 0 l 0.71,-0.79 -0.71,0.79 a 1.7556765,1.7556765 0 1 0 2.36,-2.6 z"
       id="path51"
       style="fill:#ffffff"
       inkscape:connector-curvature="0" />
  </g>
</svg>
