<?xml version="1.0" encoding="UTF-8" standalone="no"?>
<svg
   xmlns:dc="http://purl.org/dc/elements/1.1/"
   xmlns:cc="http://creativecommons.org/ns#"
   xmlns:rdf="http://www.w3.org/1999/02/22-rdf-syntax-ns#"
   xmlns:svg="http://www.w3.org/2000/svg"
   xmlns="http://www.w3.org/2000/svg"
   xmlns:sodipodi="http://sodipodi.sourceforge.net/DTD/sodipodi-0.dtd"
   xmlns:inkscape="http://www.inkscape.org/namespaces/inkscape"
   viewBox="0 0 345 171"
   version="1.1"
   id="svg16"
   sodipodi:docname="custom4.svg"
   inkscape:version="0.92.3 (2405546, 2018-03-11)">
  <metadata
     id="metadata20">
    <rdf:RDF>
      <cc:Work
         rdf:about="">
        <dc:format>image/svg+xml</dc:format>
        <dc:type
           rdf:resource="http://purl.org/dc/dcmitype/StillImage" />
        <dc:title>nginx.com-CustomerSection-logos_345x171_R01mw</dc:title>
      </cc:Work>
    </rdf:RDF>
  </metadata>
  <sodipodi:namedview
     pagecolor="#ffffff"
     bordercolor="#666666"
     borderopacity="1"
     objecttolerance="10"
     gridtolerance="10"
     guidetolerance="10"
     inkscape:pageopacity="0"
     inkscape:pageshadow="2"
     inkscape:window-width="1920"
     inkscape:window-height="951"
     id="namedview18"
     showgrid="false"
     inkscape:zoom="1.3130435"
     inkscape:cx="172.5"
     inkscape:cy="85.500001"
     inkscape:window-x="0"
     inkscape:window-y="27"
     inkscape:window-maximized="1"
     inkscape:current-layer="svg16" />
  <defs
     id="defs4">
    <style
       id="style2">.cls-1{fill:none;}.cls-2{fill:#fff;fill-rule:evenodd;}</style>
  </defs>
  <title
     id="title6">nginx.com-CustomerSection-logos_345x171_R01mw</title>
  <g
     id="Layer_1"
     data-name="Layer 1"
     style="fill:#ffffff"
     transform="translate(-3.178808e-6,-4.4370861e-6)">
    <path
       class="cls-2"
       d="m 243.66,106.66 c 0,3.55 -2.29,5.23 -6.31,5.23 h -7.67 v -3.55 h 7.67 a 2.34,2.34 0 0 0 1.55,-0.37 1.56,1.56 0 0 0 0.49,-1.06 1.62,1.62 0 0 0 -0.49,-1.18 2,2 0 0 0 -1.42,-0.37 c -3.65,-0.12 -8.29,0.12 -8.29,-5.17 0,-2.37 1.55,-5 5.69,-5 h 7.92 v 3.55 h -7.3 A 2.57,2.57 0 0 0 234,99 a 1.76,1.76 0 0 0 -0.62,1.31 1.24,1.24 0 0 0 0.8,1.19 6.23,6.23 0 0 0 1.55,0.25 h 2.16 a 7,7 0 0 1 4.64,1.31 5.47,5.47 0 0 1 1.17,3.62 M 227,103 a 7,7 0 0 0 -4.64,-1.31 h -2.17 a 6.16,6.16 0 0 1 -1.55,-0.25 1.24,1.24 0 0 1 -0.81,-1.19 1.43,1.43 0 0 1 0.62,-1.31 2.57,2.57 0 0 1 1.55,-0.25 h 7.3 v -3.5 h -7.92 c -4.27,0 -5.69,2.62 -5.69,5 0,5.3 4.64,5 8.29,5.17 a 2,2 0 0 1 1.42,0.37 1.63,1.63 0 0 1 0.5,1.18 1.57,1.57 0 0 1 -0.5,1.06 2.58,2.58 0 0 1 -1.55,0.37 h -7.67 v 3.55 h 7.67 c 4,0 6.31,-1.68 6.31,-5.23 A 5.49,5.49 0 0 0 227,103 m -15.22,5.42 h -9.34 v -3.32 h 9.16 v -3.36 h -9.16 v -3.06 h 9.34 v -3.49 h -13.27 v 16.7 h 13.24 z M 194.24,96 a 10.32,10.32 0 0 0 -4.89,-0.81 h -9.09 v 16.7 h 4 v -6.11 h 4.27 c 1.42,0 2.23,0.12 2.84,0.75 0.68,0.81 0.68,2.24 0.68,3.37 v 2 h 4 v -3.24 a 5.22,5.22 0 0 0 -0.62,-3.05 4.11,4.11 0 0 0 -2,-1.43 4.57,4.57 0 0 0 2.84,-4.42 3.81,3.81 0 0 0 -2,-3.74 M 171.75,95.21 H 159 l -5.13,5.48 -4.83,-5.48 h -16 v 16.7 h 15.77 l 5.07,-5.48 4.89,5.48 h 7.67 v -5.61 h 5 c 3.4,0 6.87,-0.93 6.87,-5.61 0,-4.68 -3.53,-5.48 -6.62,-5.48 M 232.65,83.1 H 227 L 219.51,70.58 V 83.1 h -8 l -1.55,-3.68 h -8.36 l -1.55,3.68 h -4.64 c -1.92,0 -4.39,-0.44 -5.81,-1.87 -1.42,-1.43 -2,-3.37 -2,-6.36 0.06,-2.49 0.37,-4.73 2.17,-6.54 1.17,-1.31 3.34,-1.93 6.06,-1.93 h 3.77 V 70 h -3.77 a 4.3,4.3 0 0 0 -3.09,0.93 c -0.74,0.75 -1.05,2.06 -1.05,3.8 a 6,6 0 0 0 1.05,4 4.07,4.07 0 0 0 2.72,0.81 h 1.79 L 202.9,66.4 h 5.87 l 6.68,15.76 V 66.4 h 6.12 l 7,11.59 V 66.4 h 4.08 z M 185.58,66.4 h -4 v 16.7 h 4 z m -8.41,0.75 c -1.3,-0.75 -2.72,-0.75 -4.76,-0.75 h -9.09 v 16.7 h 3.9 v -6 h 4.27 c 1.42,0 2.35,0.12 3,0.69 0.68,0.87 0.56,2.31 0.56,3.24 v 2.07 h 4.08 v -3.3 a 4.32,4.32 0 0 0 -0.74,-3 4.85,4.85 0 0 0 -1.92,-1.43 4.72,4.72 0 0 0 2.8,-4.37 4,4 0 0 0 -2.1,-3.8 m -16.7,12.52 h -9.28 v -3.41 h 9.16 v -3.43 h -9.16 v -3 h 9.28 V 66.4 h -13.3 v 16.7 h 13.3 z M 144.2,66.4 h -6.49 l -4.89,11.34 -5.2,-11.34 h -6.37 v 15.77 l -6.8,-15.77 h -5.87 l -7.11,16.7 h 4.27 l 1.49,-3.68 h 8.35 L 117,83.1 h 8.1 V 70 l 5.9,13.1 h 3.4 L 140.18,70 v 13.1 h 4 z m 46.8,35.7 a 4.76,4.76 0 0 1 -1.92,0.25 l -4.82,0.12 v -3.8 h 4.82 A 3.69,3.69 0 0 1 191,99 a 1.51,1.51 0 0 1 0.8,1.43 2,2 0 0 1 -0.8,1.68 m -19.3,0.81 h -5.26 v -4.24 h 5.26 c 1.42,0 2.35,0.56 2.35,2 a 2.12,2.12 0 0 1 -2.35,2.24 m -15.28,0.62 6.15,-6.54 v 13.46 z m -9.65,4.92 H 137 v -3.36 h 8.78 v -3.36 H 137 v -3.06 h 10 l 4.39,4.86 z M 208.44,75.87 205.72,69.26 203,75.87 Z M 174.08,73.2 a 3.44,3.44 0 0 1 -2,0.37 h -4.88 v -3.68 h 4.88 a 5,5 0 0 1 2,0.25 1.67,1.67 0 0 1 0.74,1.56 1.51,1.51 0 0 1 -0.74,1.5 m -65.44,2.68 2.78,-6.61 2.72,6.61 z"
       id="path11"
       style="fill:#ffffff;fill-rule:evenodd"
       inkscape:connector-curvature="0" />
    <path
       class="cls-2"
       d="M 236.18,86.47 H 225 l -2.17,-3.55 v 3.55 H 209 l -1.54,-3.8 h -3.4 l -1.55,3.8 h -7.24 A 13.59,13.59 0 0 1 188.92,85 v 1.43 h -17.2 v -5.32 c 0,-0.75 -0.12,-0.87 -0.62,-0.87 h -0.56 v 6.23 h -33.21 v -3 l -1.17,3 h -7 L 128,83.6 v 2.87 h -13.43 l -1.42,-3.8 h -3.4 l -1.55,3.8 h -6.86 V 157 h 141.33 v -42.81 a 14.61,14.61 0 0 1 -5.75,1.06 h -10.33 v -1.43 a 9.28,9.28 0 0 1 -5.32,1.43 H 188.8 v -5.35 c 0,-0.75 -0.13,-0.75 -0.74,-0.75 h -0.55 v 6.11 H 176.8 v -6.36 a 12.46,12.46 0 0 1 -5.57,0.87 h -1.17 v 5.48 H 157 l -3.09,-3.61 -3.4,3.61 h -21 V 91.83 h 21.34 l 3,3.61 3.34,-3.61 h 14.41 c 1.67,0 4.39,0.25 5.57,1.43 V 91.83 H 190 a 10.18,10.18 0 0 1 5.44,1.43 v -1.43 h 19.3 v 1.43 a 8.12,8.12 0 0 1 4.89,-1.43 h 10.76 v 1.43 a 8.74,8.74 0 0 1 5,-1.43 h 7.3 V 14 H 101.34 v 60.19 l 4.83,-11.09 h 10.33 l 1.42,2.74 V 63.1 H 130 l 2.7,5.9 2.66,-5.92 h 38.47 a 6.71,6.71 0 0 1 4.51,1.31 V 63.1 h 10.58 v 1.31 a 13.39,13.39 0 0 1 6.62,-1.31 h 15.28 l 1.42,2.74 V 63.1 h 11.26 l 1.67,2.74 V 63.1 h 11"
       id="path13"
       style="fill:#ffffff;fill-rule:evenodd"
       inkscape:connector-curvature="0" />
  </g>
</svg>
