<?xml version="1.0" encoding="utf-8"?>
<!-- Generator: Adobe Illustrator 20.0.0, SVG Export Plug-In . SVG Version: 6.00 Build 0)  -->
<svg version="1.1" id="Layer_1" xmlns="http://www.w3.org/2000/svg" xmlns:xlink="http://www.w3.org/1999/xlink" x="0px" y="0px"
	 viewBox="0 0 106 92" style="enable-background:new 0 0 106 92;" xml:space="preserve">
<style type="text/css">
	.st0{fill:#00953A;}
</style>
<g>
	<path class="st0" d="M53,8.4C32.3,8.4,15.4,25.3,15.4,46c0,21.1,16.1,37.6,36.6,37.6c0.8,0,1.4-0.6,1.4-1.4c0-0.8-0.6-1.4-1.4-1.4
		C33.4,80.7,18.8,66,18.3,47H32c0.5,0,1-0.4,1-1c0-0.5-0.4-1-1-1H18.3C18.8,26.7,33.7,11.8,52,11.3v13.3c0,0.5,0.4,1,1,1
		c0.5,0,1-0.4,1-1V11.3c18.2,0.5,33,15.1,33.7,33.2H74.5c-0.8,0-1.4,0.6-1.4,1.4c0,0.8,0.6,1.4,1.4,1.4h14.6c0.8,0,1.4-0.6,1.4-1.4
		C90.6,25.3,73.7,8.4,53,8.4z"/>
	<path class="st0" d="M65,25L47.9,44c-0.1,0.1-0.1,0.2-0.2,0.3c-1,1.1-1.5,2.6-1.2,4.2c0.5,2.7,3.1,4.6,5.8,4.1
		c1.5-0.3,2.6-1.1,3.4-2.3c0.1-0.2,0.2-0.3,0.4-0.5L67.8,27c0.3-0.7,0.2-1.5-0.4-2C66.7,24.3,65.6,24.3,65,25z"/>
</g>
</svg>
