<?xml version="1.0" encoding="utf-8"?>
<!-- Generator: Adobe Illustrator 20.0.0, SVG Export Plug-In . SVG Version: 6.00 Build 0)  -->
<svg version="1.1" id="Layer_1" xmlns="http://www.w3.org/2000/svg" xmlns:xlink="http://www.w3.org/1999/xlink" x="0px" y="0px"
	 viewBox="0 0 106 92" style="enable-background:new 0 0 106 92;" xml:space="preserve">
<style type="text/css">
	.st0{fill:#00953A;}
</style>
<g>
	<path class="st0" d="M23.8,62.8c0.3,0,0.6-0.1,0.8-0.4c0.5-0.5,0.5-1.2,0-1.7L11,47.2h21.2v14.9c0,1,0.8,1.8,1.8,1.8
		c1,0,1.8-0.8,1.8-1.8V47.2h55.9c0.7,0,1.2-0.5,1.2-1.2c0-0.7-0.5-1.2-1.2-1.2H35.9V30.4c0-1-0.8-1.8-1.8-1.8c-1,0-1.8,0.8-1.8,1.8
		v14.4H11l13.6-13.6c0.5-0.5,0.5-1.2,0-1.7s-1.2-0.5-1.7,0L7.3,45.2c-0.5,0.5-0.5,1.2,0,1.7l15.6,15.6
		C23.1,62.7,23.4,62.8,23.8,62.8z"/>
	<path class="st0" d="M17,23.2h52.8v14.6c0,1,0.8,1.8,1.8,1.8c1,0,1.8-0.8,1.8-1.8V23.2H95L81.4,36.7c-0.5,0.5-0.5,1.2,0,1.7
		c0.2,0.2,0.5,0.4,0.8,0.4c0.3,0,0.6-0.1,0.8-0.4l15.6-15.6c0.5-0.5,0.5-1.2,0-1.7L83.1,5.5c-0.5-0.5-1.2-0.5-1.7,0s-0.5,1.2,0,1.7
		L95,20.8H73.4V8.4c0-1-0.8-1.8-1.8-1.8H34.1c-1,0-1.8,0.8-1.8,1.8v4.9c0,1,0.8,1.8,1.8,1.8c1,0,1.8-0.8,1.8-1.8v-3.1h33.9v10.6H17
		c-0.7,0-1.2,0.5-1.2,1.2S16.4,23.2,17,23.2z"/>
	<path class="st0" d="M83.1,53.6c-0.5-0.5-1.2-0.5-1.7,0s-0.5,1.2,0,1.7L95,68.8H73.4V53.5c0-1-0.8-1.8-1.8-1.8
		c-1,0-1.8,0.8-1.8,1.8v15.3H17c-0.7,0-1.2,0.5-1.2,1.2s0.5,1.2,1.2,1.2h52.8V81H35.9v-2.3c0-1-0.8-1.8-1.8-1.8
		c-1,0-1.8,0.8-1.8,1.8v4.1c0,1,0.8,1.8,1.8,1.8h37.5c1,0,1.8-0.8,1.8-1.8V71.2H95L81.4,84.8c-0.5,0.5-0.5,1.2,0,1.7
		c0.2,0.2,0.5,0.4,0.8,0.4c0.3,0,0.6-0.1,0.8-0.4l15.6-15.6c0.5-0.5,0.5-1.2,0-1.7L83.1,53.6z"/>
</g>
</svg>
