<?xml version="1.0" encoding="UTF-8" standalone="no"?>
<!-- Created with Inkscape (http://www.inkscape.org/) -->

<svg
   xmlns:dc="http://purl.org/dc/elements/1.1/"
   xmlns:cc="http://creativecommons.org/ns#"
   xmlns:rdf="http://www.w3.org/1999/02/22-rdf-syntax-ns#"
   xmlns:svg="http://www.w3.org/2000/svg"
   xmlns="http://www.w3.org/2000/svg"
   xmlns:sodipodi="http://sodipodi.sourceforge.net/DTD/sodipodi-0.dtd"
   xmlns:inkscape="http://www.inkscape.org/namespaces/inkscape"
   width="210mm"
   height="297mm"
   viewBox="0 0 210 297"
   version="1.1"
   id="svg8"
   inkscape:version="0.92.3 (2405546, 2018-03-11)"
   sodipodi:docname="icon-hub-yellow.svg">
  <defs
     id="defs2" />
  <sodipodi:namedview
     id="base"
     pagecolor="#ffffff"
     bordercolor="#666666"
     borderopacity="1.0"
     inkscape:pageopacity="0.0"
     inkscape:pageshadow="2"
     inkscape:zoom="0.35"
     inkscape:cx="400"
     inkscape:cy="560"
     inkscape:document-units="mm"
     inkscape:current-layer="layer1"
     showgrid="false"
     inkscape:window-width="1920"
     inkscape:window-height="951"
     inkscape:window-x="0"
     inkscape:window-y="27"
     inkscape:window-maximized="1" />
  <metadata
     id="metadata5">
    <rdf:RDF>
      <cc:Work
         rdf:about="">
        <dc:format>image/svg+xml</dc:format>
        <dc:type
           rdf:resource="http://purl.org/dc/dcmitype/StillImage" />
        <dc:title></dc:title>
      </cc:Work>
    </rdf:RDF>
  </metadata>
  <g
     inkscape:label="Calque 1"
     inkscape:groupmode="layer"
     id="layer1">
    <g
       id="g175">
      <path
         inkscape:connector-curvature="0"
         style="fill:#ffeeaa;stroke-width:2.79294062"
         id="path4"
         d="m 105.59245,39.835387 c -2.51365,0 -4.748,0.558588 -6.98235,1.955059 L 11.470356,92.063375 C 7.2809457,94.577021 4.4880052,99.045726 4.4880052,104.07302 v 100.82515 c 0,2.51365 0.5585881,4.748 1.9550583,6.98235 L 105.59245,154.62524 c 0,-0.27929 0,-74.57151 0,-114.789853 z"
         class="st0" />
      <path
         inkscape:connector-curvature="0"
         style="fill:#ffdd55;stroke-width:2.79294062"
         id="path6"
         d="m 6.4430635,211.60123 c 1.1171762,1.95506 2.7929405,3.91011 5.0272925,5.02729 L 98.6101,267.18074 c 4.18941,2.51365 9.496,2.51365 13.68541,0 l 87.41904,-50.55222 c 2.23435,-1.11718 3.91011,-3.07223 5.02729,-5.02729 l -99.14939,-57.25528 c 0,0 -64.23763,37.14611 -99.1493865,57.25528 z"
         class="st1" />
      <path
         inkscape:connector-curvature="0"
         style="fill:#d4aa00;stroke-width:2.79294062"
         id="path8"
         d="m 204.74184,211.60123 c 1.11718,-1.95506 1.95506,-4.46871 1.95506,-6.98235 V 103.79372 c 0,-5.027288 -2.51365,-9.495993 -6.98235,-12.009639 L 112.5748,41.511152 c -2.23435,-1.117177 -4.4687,-1.955059 -6.98235,-1.955059 V 154.06665 c 0,0.2793 64.23763,37.42541 99.14939,57.53458 z"
         class="st2" />
      <g
         transform="matrix(2.7929405,0,0,2.7929405,3.650123,38.264354)"
         style="fill:#1a1a1a"
         id="g50">
        <path
           class="st3"
           d="M 46.9,34.6 37.3,29 c -0.5,-0.3 -1,-0.3 -1.5,0 l -9.6,5.6 c -0.5,0.3 -0.8,0.8 -0.8,1.3 V 47 c 0,0.5 0.3,1 0.8,1.3 l 9.6,5.6 c 0.2,0.1 0.5,0.2 0.8,0.2 0.3,0 0.5,-0.1 0.8,-0.2 L 47,48.3 C 47.5,48 47.8,47.5 47.8,47 V 35.9 c -0.2,-0.5 -0.5,-1.1 -0.9,-1.3 z"
           id="path12-7"
           inkscape:connector-curvature="0"
           style="fill:#1a1a1a" />
        <g
           style="fill:#1a1a1a"
           id="g18">
          <path
             class="st3"
             d="M 36.5,42.4 C 36,42.4 35.6,42 35.6,41.5 V 15.7 c 0,-0.5 0.4,-0.9 0.9,-0.9 0.5,0 0.9,0.4 0.9,0.9 v 25.8 c 0,0.5 -0.4,0.9 -0.9,0.9 z"
             id="path14"
             inkscape:connector-curvature="0"
             style="fill:#1a1a1a" />
          <path
             class="st3"
             d="m 36.5,16.7 c -2.2,0 -4,-1.8 -4,-4 0,-2.2 1.8,-4 4,-4 2.2,0 4,1.8 4,4 0,2.1 -1.8,4 -4,4 z m 0,-6.3 c -1.2,0 -2.2,1 -2.2,2.2 0,1.2 1,2.2 2.2,2.2 1.2,0 2.2,-1 2.2,-2.2 0,-1.2 -1,-2.2 -2.2,-2.2 z"
             id="path16"
             inkscape:connector-curvature="0"
             style="fill:#1a1a1a" />
        </g>
        <g
           style="fill:#1a1a1a"
           id="g24">
          <path
             class="st3"
             d="m 36.5,42.4 c -0.2,0 -0.3,0 -0.5,-0.1 L 13.7,29.4 c -0.4,-0.3 -0.6,-0.8 -0.3,-1.2 0.3,-0.4 0.8,-0.6 1.2,-0.3 L 37,40.7 c 0.4,0.3 0.6,0.8 0.3,1.2 -0.2,0.3 -0.5,0.5 -0.8,0.5 z"
             id="path20"
             inkscape:connector-curvature="0"
             style="fill:#1a1a1a" />
          <path
             class="st3"
             d="m 11.5,31.1 c -0.7,0 -1.4,-0.2 -2,-0.5 C 7.5,29.4 6.9,27 8,25 c 0.5,-0.9 1.4,-1.6 2.5,-1.9 1,-0.3 2.1,-0.1 3.1,0.4 0.9,0.5 1.6,1.4 1.9,2.5 0.3,1 0.1,2.1 -0.4,3.1 -0.9,1.3 -2.2,2 -3.6,2 z m 0,-6.3 c -0.2,0 -0.4,0 -0.6,0.1 -0.6,0.2 -1.1,0.5 -1.3,1 -0.6,1.1 -0.2,2.4 0.8,3 1.1,0.6 2.4,0.2 3,-0.8 0.3,-0.5 0.4,-1.1 0.2,-1.7 -0.2,-0.6 -0.5,-1.1 -1,-1.3 v 0 c -0.3,-0.2 -0.7,-0.3 -1.1,-0.3 z"
             id="path22"
             inkscape:connector-curvature="0"
             style="fill:#1a1a1a" />
        </g>
        <g
           style="fill:#1a1a1a"
           id="g30">
          <path
             class="st3"
             d="m 14.2,55.3 c -0.3,0 -0.6,-0.2 -0.8,-0.5 -0.3,-0.4 -0.1,-1 0.3,-1.2 L 36,40.7 c 0.4,-0.3 1,-0.1 1.2,0.3 0.3,0.4 0.1,1 -0.3,1.2 l -22.2,13 c -0.2,0 -0.3,0.1 -0.5,0.1 z"
             id="path26"
             inkscape:connector-curvature="0"
             style="fill:#1a1a1a" />
          <path
             class="st3"
             d="M 11.5,60 C 11.1,60 10.8,60 10.4,59.9 9.4,59.6 8.5,59 7.9,58 7.4,57.1 7.2,56 7.5,54.9 7.8,53.9 8.4,53 9.4,52.4 v 0 c 0.9,-0.5 2,-0.7 3.1,-0.4 1,0.3 1.9,0.9 2.5,1.9 0.5,0.9 0.7,2 0.4,3.1 -0.3,1 -0.9,1.9 -1.9,2.5 -0.6,0.3 -1.3,0.5 -2,0.5 z m 0,-6.3 c -0.4,0 -0.8,0.1 -1.1,0.3 v 0 c -0.5,0.3 -0.9,0.8 -1,1.3 -0.2,0.6 -0.1,1.2 0.2,1.7 0.3,0.5 0.8,0.9 1.3,1 0.6,0.2 1.2,0.1 1.7,-0.2 0.5,-0.3 0.9,-0.8 1,-1.3 0.1,-0.5 0.1,-1.2 -0.2,-1.7 -0.3,-0.5 -0.8,-0.9 -1.3,-1 -0.2,-0.1 -0.4,-0.1 -0.6,-0.1 z M 9.9,53.2 Z"
             id="path28"
             inkscape:connector-curvature="0"
             style="fill:#1a1a1a" />
        </g>
        <g
           style="fill:#1a1a1a"
           id="g36">
          <path
             class="st3"
             d="m 36.5,68.2 c -0.5,0 -0.9,-0.4 -0.9,-0.9 V 41.5 c 0,-0.5 0.4,-0.9 0.9,-0.9 0.5,0 0.9,0.4 0.9,0.9 v 25.8 c 0,0.5 -0.4,0.9 -0.9,0.9 z"
             id="path32"
             inkscape:connector-curvature="0"
             style="fill:#1a1a1a" />
          <path
             class="st3"
             d="m 36.5,74.4 c -2.2,0 -4,-1.8 -4,-4 0,-2.2 1.8,-4 4,-4 2.2,0 4,1.8 4,4 0,2.2 -1.8,4 -4,4 z m 0,-6.2 c -1.2,0 -2.2,1 -2.2,2.2 0,1.2 1,2.2 2.2,2.2 1.2,0 2.2,-1 2.2,-2.2 0,-1.2 -1,-2.2 -2.2,-2.2 z"
             id="path34"
             inkscape:connector-curvature="0"
             style="fill:#1a1a1a" />
        </g>
        <g
           style="fill:#1a1a1a"
           id="g42">
          <path
             class="st3"
             d="m 58.8,55.3 c -0.2,0 -0.3,0 -0.5,-0.1 L 36,42.3 C 35.6,42 35.4,41.5 35.7,41.1 36,40.7 36.5,40.5 36.9,40.8 l 22.3,12.9 c 0.4,0.3 0.6,0.8 0.3,1.2 -0.1,0.2 -0.4,0.4 -0.7,0.4 z"
             id="path38"
             inkscape:connector-curvature="0"
             style="fill:#1a1a1a" />
          <path
             class="st3"
             d="m 61.5,60 c -0.7,0 -1.4,-0.2 -2,-0.5 v 0 C 58.6,59 57.9,58.1 57.6,57 57.3,56 57.5,54.9 58,53.9 58.5,53 59.4,52.3 60.5,52 c 1,-0.3 2.1,-0.1 3.1,0.4 0.9,0.5 1.6,1.4 1.9,2.5 0.3,1 0.1,2.1 -0.4,3.1 -0.5,0.9 -1.4,1.6 -2.5,1.9 -0.4,0 -0.7,0.1 -1.1,0.1 z m 0,-6.3 c -0.2,0 -0.4,0 -0.6,0.1 -0.6,0.2 -1.1,0.5 -1.3,1 -0.3,0.5 -0.4,1.1 -0.2,1.7 0.2,0.6 0.5,1.1 1,1.3 v 0 c 0.5,0.3 1.1,0.4 1.7,0.2 0.6,-0.2 1.1,-0.5 1.3,-1 0.3,-0.5 0.4,-1.1 0.2,-1.7 -0.2,-0.6 -0.5,-1.1 -1,-1.3 -0.3,-0.2 -0.7,-0.3 -1.1,-0.3 z"
             id="path40"
             inkscape:connector-curvature="0"
             style="fill:#1a1a1a" />
        </g>
        <g
           style="fill:#1a1a1a"
           id="g48">
          <path
             class="st3"
             d="m 36.5,42.4 c -0.3,0 -0.6,-0.2 -0.8,-0.5 -0.3,-0.4 -0.1,-1 0.3,-1.2 L 58.3,27.8 c 0.4,-0.3 1,-0.1 1.2,0.3 0.3,0.4 0.1,1 -0.3,1.2 L 37,42.3 c -0.2,0.1 -0.3,0.1 -0.5,0.1 z"
             id="path44"
             inkscape:connector-curvature="0"
             style="fill:#1a1a1a" />
          <path
             class="st3"
             d="m 61.5,31.1 c -1.4,0 -2.8,-0.7 -3.5,-2 -0.5,-0.9 -0.7,-2 -0.4,-3.1 0.3,-1 0.9,-1.9 1.9,-2.5 0.9,-0.5 2,-0.7 3.1,-0.4 1,0.3 1.9,0.9 2.5,1.9 0.5,0.9 0.7,2 0.4,3.1 -0.3,1 -0.9,1.9 -1.9,2.5 v 0 c -0.7,0.3 -1.4,0.5 -2.1,0.5 z m 1.6,-1.3 z m -1.6,-5 c -0.4,0 -0.8,0.1 -1.1,0.3 -0.5,0.3 -0.9,0.8 -1,1.3 -0.1,0.5 -0.1,1.2 0.2,1.7 0.6,1.1 2,1.4 3,0.8 0.5,-0.3 0.9,-0.8 1,-1.3 0.2,-0.6 0.1,-1.2 -0.2,-1.7 -0.3,-0.5 -0.8,-0.9 -1.3,-1 -0.2,0 -0.4,-0.1 -0.6,-0.1 z"
             id="path46"
             inkscape:connector-curvature="0"
             style="fill:#1a1a1a" />
        </g>
      </g>
    </g>
  </g>
  <style
     id="style2"
     type="text/css">
	.st0{fill:#009639;}
	.st1{fill:#007A33;}
	.st2{fill:#215732;}
	.st3{fill:#FFFFFF;}
</style>
</svg>
