<?xml version="1.0" encoding="UTF-8" standalone="no"?>
<!-- Generator: Adobe Illustrator 20.0.0, SVG Export Plug-In . SVG Version: 6.00 Build 0)  -->

<svg
   xmlns:dc="http://purl.org/dc/elements/1.1/"
   xmlns:cc="http://creativecommons.org/ns#"
   xmlns:rdf="http://www.w3.org/1999/02/22-rdf-syntax-ns#"
   xmlns:svg="http://www.w3.org/2000/svg"
   xmlns="http://www.w3.org/2000/svg"
   xmlns:sodipodi="http://sodipodi.sourceforge.net/DTD/sodipodi-0.dtd"
   xmlns:inkscape="http://www.inkscape.org/namespaces/inkscape"
   version="1.1"
   id="Layer_1"
   x="0px"
   y="0px"
   viewBox="0 0 73 83"
   style="enable-background:new 0 0 73 83;"
   xml:space="preserve"
   sodipodi:docname="icon-shield-orange.svg"
   inkscape:version="0.92.3 (2405546, 2018-03-11)"><metadata
   id="metadata23"><rdf:RDF><cc:Work
       rdf:about=""><dc:format>image/svg+xml</dc:format><dc:type
         rdf:resource="http://purl.org/dc/dcmitype/StillImage" /><dc:title></dc:title></cc:Work></rdf:RDF></metadata><defs
   id="defs21">
	
	

		
	</defs><sodipodi:namedview
   pagecolor="#ffffff"
   bordercolor="#666666"
   borderopacity="1"
   objecttolerance="10"
   gridtolerance="10"
   guidetolerance="10"
   inkscape:pageopacity="0"
   inkscape:pageshadow="2"
   inkscape:window-width="1920"
   inkscape:window-height="951"
   id="namedview19"
   showgrid="false"
   inkscape:zoom="2.8433735"
   inkscape:cx="26.117365"
   inkscape:cy="45.872919"
   inkscape:window-x="0"
   inkscape:window-y="27"
   inkscape:window-maximized="1"
   inkscape:current-layer="Layer_1" />
<style
   type="text/css"
   id="style2">
	.st0{fill:#009639;}
	.st1{fill:#007A33;}
	.st2{fill:#215732;}
	.st3{fill:#FFFFFF;}
</style>




<path
   class="st3"
   d="m -13.469492,-14.570127 h -7.4 c 0,0 -0.1,0 -0.1,-0.1 v -7.4 c 0,-1.7 -1.4,-3.1 -3.1,-3.1 v 0 c -1.7,0 -3.1,1.4 -3.1,3.1 v 6 0.7 0.4 c 0,0.2 -0.2,0.4 -0.4,0.4 h -0.5 -0.6 -6.3 c -1.7,0 -3.1,1.4 -3.1,3.1 v 0 c 0,1.6999999 1.4,3.0999999 3.1,3.0999999 h 7.7 c 0,0 0.1,0 0.1,0.1 v 7.39999995 c 0,1.7 1.4,3.10000005 3.1,3.10000005 v 0 c 1.7,0 3.1,-1.40000005 3.1,-3.10000005 v -5.99999995 -0.7 -0.4 c 0,-0.2 0.2,-0.4 0.4,-0.4 h 0.2 0.9 6 c 1.7,0 3.1,-1.4 3.1,-3.0999999 v 0 c 0,-1.7 -1.4,-3.1 -3.1,-3.1 z"
   id="path12"
   inkscape:connector-curvature="0"
   style="fill:#ffffff" /><g
   id="g4072"><path
     style="fill:#ff9955"
     id="path4"
     d="m 36.5,0.5 c -0.9,0 -1.7,0.2 -2.5,0.7 l -31.2,18 c -1.5,0.9 -2.5,2.5 -2.5,4.3 v 36.1 c 0,0.9 0.2,1.7 0.7,2.5 L 36.5,41.6 c 0,-0.1 0,-26.7 0,-41.1 z"
     class="st0"
     inkscape:connector-curvature="0" /><path
     style="fill:#ff6600"
     id="path6"
     d="m 1,62 c 0.4,0.7 1,1.4 1.8,1.8 L 34,81.9 c 1.5,0.9 3.4,0.9 4.9,0 L 70.2,63.8 C 71,63.4 71.6,62.7 72,62 L 36.5,41.5 c 0,0 -23,13.3 -35.5,20.5 z"
     class="st1"
     inkscape:connector-curvature="0" /><path
     style="fill:#803300"
     id="path8"
     d="m 72,62 c 0.4,-0.7 0.7,-1.6 0.7,-2.5 V 23.4 c 0,-1.8 -0.9,-3.4 -2.5,-4.3 L 39,1.1 C 38.2,0.7 37.4,0.4 36.5,0.4 v 41 c 0,0.1 23,13.4 35.5,20.6 z"
     class="st2"
     inkscape:connector-curvature="0" /></g><path
   inkscape:connector-curvature="0"
   class="st3"
   d="m 36.536866,58.425 c 12,-6.5 15.8,-13.8 14.8,-29.9 0,-0.5 -0.5,-0.9 -1,-0.9 -5.6,0.1 -9.9,-1.1 -13.4,-3 -0.3,-0.1 -0.6,-0.1 -0.9,0 -3.5,1.9 -7.7,3 -13.4,3 -0.5,0 -0.9,0.4 -1,0.9 -0.9,16.1 2.9,23.3 14.9,29.9 z"
   id="path10"
   style="fill:#ffffff" /></svg>