<?xml version="1.0" encoding="utf-8"?>
<!-- Generator: Adobe Illustrator 20.0.0, SVG Export Plug-In . SVG Version: 6.00 Build 0)  -->
<svg version="1.1" id="Layer_1" xmlns="http://www.w3.org/2000/svg" xmlns:xlink="http://www.w3.org/1999/xlink" x="0px" y="0px"
	 viewBox="0 0 106 92" style="enable-background:new 0 0 106 92;" xml:space="preserve">
<style type="text/css">
	.st0{fill:#00953A;}
</style>
<g>
	<path class="st0" d="M92.3,29.3c-3-3.1-7-4.9-11.2-4.9c-1.6,0-3.1,0.2-4.6,0.7C76.1,14.7,67.5,6.4,57,6.4c-10,0-18.2,7.5-19.4,17.1
		c-1.9-1.1-4-1.7-6.2-1.7c-6.5,0-11.9,5.1-12.3,11.6C13,34,9.1,38.4,9.1,45.1c0,6.4,5.2,11.8,11.3,11.8h13.7c0.8,0,1.4-0.6,1.4-1.4
		c0-0.8-0.6-1.4-1.4-1.4H20.4c-4.6,0-8.4-4.1-8.4-8.9c0-4.3,2.2-8.9,8.4-8.9c0.4,0,0.8-0.2,1-0.4c0.4-0.4,0.4-0.9,0.4-1.4l0-0.2
		c0-5.2,4.3-9.5,9.5-9.5c2.4,0,4.7,0.9,6.5,2.6c0.4,0.4,1,0.5,1.6,0.3c0.5-0.2,0.9-0.8,0.9-1.4l0-0.3c0-9.2,7.5-16.7,16.7-16.7
		c9.2,0,16.7,7.5,16.7,16.7c0,0.3,0,0.7,0,1l0,0.2c0,0.5,0.2,1,0.6,1.3c0.4,0.3,1,0.3,1.4,0.1c1.7-0.8,3.6-1.2,5.4-1.2
		c3.4,0,6.6,1.4,9.1,4c2.4,2.5,3.8,5.9,3.8,9.4C94,47.9,88.1,54,81.1,54h-9.3c-0.8,0-1.4,0.6-1.4,1.4c0,0.8,0.6,1.4,1.4,1.4h9.3
		c8.5,0,15.8-7.4,15.8-16.2C96.9,36.4,95.2,32.4,92.3,29.3z"/>
	<path class="st0" d="M72.8,35.1c0.2,0.1,0.3,0.1,0.5,0.1c0.3,0,0.7-0.2,0.8-0.5c0.3-0.5,0.1-1-0.4-1.3l-7.5-4.3c0,0,0,0-0.1,0
		c0,0-0.1,0-0.1,0c0,0-0.1,0-0.1,0c0,0-0.1,0-0.1,0c0,0,0,0-0.1,0c0,0,0,0-0.1,0c0,0-0.1,0-0.1,0c0,0-0.1,0-0.1,0c0,0-0.1,0-0.1,0
		c0,0,0,0-0.1,0l-7.5,4.3c-0.5,0.3-0.6,0.9-0.4,1.3c0.2,0.3,0.5,0.5,0.8,0.5c0.2,0,0.3,0,0.5-0.1l6-3.5v38.3c0,0.5,0.4,1,1,1
		c0.5,0,1-0.4,1-1V31.6L72.8,35.1z"/>
	<path class="st0" d="M61,40.9l-7.5-4.3c0,0,0,0-0.1,0c0,0-0.1,0-0.1,0c0,0-0.1,0-0.1,0c0,0-0.1,0-0.1,0c0,0,0,0-0.1,0s0,0-0.1,0
		c0,0-0.1,0-0.1,0c0,0-0.1,0-0.1,0c0,0-0.1,0-0.1,0c0,0,0,0-0.1,0l-7.5,4.3c-0.5,0.3-0.6,0.9-0.4,1.3c0.2,0.3,0.5,0.5,0.8,0.5
		c0.2,0,0.3,0,0.5-0.1l6-3.5v38.3c0,0.5,0.4,1,1,1c0.5,0,1-0.4,1-1V39.1l6,3.5c0.2,0.1,0.3,0.1,0.5,0.1c0.3,0,0.7-0.2,0.8-0.5
		C61.6,41.7,61.4,41.1,61,40.9z"/>
	<path class="st0" d="M48.3,48.3L40.8,44c0,0,0,0-0.1,0c0,0-0.1,0-0.1,0c0,0-0.1,0-0.1,0c0,0-0.1,0-0.1,0c0,0,0,0-0.1,0
		c0,0,0,0-0.1,0c0,0-0.1,0-0.1,0c0,0-0.1,0-0.1,0c0,0-0.1,0-0.1,0c0,0,0,0-0.1,0l-7.5,4.3c-0.5,0.3-0.6,0.9-0.4,1.3
		c0.2,0.3,0.5,0.5,0.8,0.5c0.2,0,0.3,0,0.5-0.1l6-3.5v38.2c0,0.5,0.4,1,1,1c0.5,0,1-0.4,1-1V46.5l6,3.5c0.2,0.1,0.3,0.1,0.5,0.1
		c0.3,0,0.7-0.2,0.8-0.5C48.9,49.2,48.7,48.6,48.3,48.3z"/>
</g>
</svg>
