<?xml version="1.0" encoding="UTF-8" standalone="no"?>
<!-- Generator: Adobe Illustrator 20.0.0, SVG Export Plug-In . SVG Version: 6.00 Build 0)  -->

<svg
   xmlns:dc="http://purl.org/dc/elements/1.1/"
   xmlns:cc="http://creativecommons.org/ns#"
   xmlns:rdf="http://www.w3.org/1999/02/22-rdf-syntax-ns#"
   xmlns:svg="http://www.w3.org/2000/svg"
   xmlns="http://www.w3.org/2000/svg"
   xmlns:sodipodi="http://sodipodi.sourceforge.net/DTD/sodipodi-0.dtd"
   xmlns:inkscape="http://www.inkscape.org/namespaces/inkscape"
   version="1.1"
   id="Layer_1"
   x="0px"
   y="0px"
   viewBox="0 0 73 83"
   style="enable-background:new 0 0 73 83;"
   xml:space="preserve"
   sodipodi:docname="icon-direction-blue.svg"
   inkscape:version="0.92.3 (2405546, 2018-03-11)"><metadata
   id="metadata23"><rdf:RDF><cc:Work
       rdf:about=""><dc:format>image/svg+xml</dc:format><dc:type
         rdf:resource="http://purl.org/dc/dcmitype/StillImage" /><dc:title></dc:title></cc:Work></rdf:RDF></metadata><defs
   id="defs21">
	
	

		
	</defs><sodipodi:namedview
   pagecolor="#ffffff"
   bordercolor="#666666"
   borderopacity="1"
   objecttolerance="10"
   gridtolerance="10"
   guidetolerance="10"
   inkscape:pageopacity="0"
   inkscape:pageshadow="2"
   inkscape:window-width="1920"
   inkscape:window-height="951"
   id="namedview19"
   showgrid="false"
   inkscape:zoom="5.686747"
   inkscape:cx="26.117365"
   inkscape:cy="55.820354"
   inkscape:window-x="0"
   inkscape:window-y="27"
   inkscape:window-maximized="1"
   inkscape:current-layer="Layer_1" />
<style
   type="text/css"
   id="style2">
	.st0{fill:#009639;}
	.st1{fill:#007A33;}
	.st2{fill:#215732;}
	.st3{fill:#FFFFFF;}
</style>


<g
   id="g3759"><path
     style="fill:#55ddff"
     id="path4"
     d="M36.5,0.5c-0.9,0-1.7,0.2-2.5,0.7L2.8,19.2c-1.5,0.9-2.5,2.5-2.5,4.3v36.1c0,0.9,0.2,1.7,0.7,2.5l35.5-20.5  C36.5,41.5,36.5,14.9,36.5,0.5z"
     class="st0" /><path
     style="fill:#0088aa"
     id="path6"
     d="M1,62c0.4,0.7,1,1.4,1.8,1.8L34,81.9c1.5,0.9,3.4,0.9,4.9,0l31.3-18.1c0.8-0.4,1.4-1.1,1.8-1.8L36.5,41.5  C36.5,41.5,13.5,54.8,1,62z"
     class="st1" /><path
     style="fill:#004455"
     id="path8"
     d="M72,62c0.4-0.7,0.7-1.6,0.7-2.5l0-36.1c0-1.8-0.9-3.4-2.5-4.3L39,1.1c-0.8-0.4-1.6-0.7-2.5-0.7l0,41  C36.5,41.5,59.5,54.8,72,62z"
     class="st2" /></g>

<path
   style="fill:#ffffff"
   inkscape:connector-curvature="0"
   id="path10"
   d="m -49.069492,0.32987285 c 1.1,1.30000005 2.9,2.00000005 4.4,2.00000005 2.2,0 3.7,-1.40000005 3.7,-3.10000005 V -23.070127 c 0,-1.7 -1.4,-3.1 -3.1,-3.1 h -0.1 c -1.8,0 -3.2,1.5 -3.2,3.2 l -0.1,15.7999999 c 0,0.1 -0.1,0.1 -0.2,0.1 l -14.2,-17.1999999 c -1.1,-1.3 -2.9,-2 -4.4,-2 -2.199999,0 -3.7,1.4 -3.7,3.1 v 22.29999985 c 0,1.7 1.400001,3.10000005 3.100001,3.10000005 h 0.1 c 1.799999,0 3.199999,-1.50000005 3.199999,-3.20000005 V -16.770127 c 0,-0.1 0.1,-0.1 0.2,-0.1 z"
   class="st3" /><path
   class="st3"
   d="m -13.469492,-14.570127 h -7.4 c 0,0 -0.1,0 -0.1,-0.1 v -7.4 c 0,-1.7 -1.4,-3.1 -3.1,-3.1 v 0 c -1.7,0 -3.1,1.4 -3.1,3.1 v 6 0.7 0.4 c 0,0.2 -0.2,0.4 -0.4,0.4 h -0.5 -0.6 -6.3 c -1.7,0 -3.1,1.4 -3.1,3.1 v 0 c 0,1.6999999 1.4,3.0999999 3.1,3.0999999 h 7.7 c 0,0 0.1,0 0.1,0.1 v 7.39999995 c 0,1.7 1.4,3.10000005 3.1,3.10000005 v 0 c 1.7,0 3.1,-1.40000005 3.1,-3.10000005 v -5.99999995 -0.7 -0.4 c 0,-0.2 0.2,-0.4 0.4,-0.4 h 0.2 0.9 6 c 1.7,0 3.1,-1.4 3.1,-3.0999999 v 0 c 0,-1.7 -1.4,-3.1 -3.1,-3.1 z"
   id="path12"
   inkscape:connector-curvature="0"
   style="fill:#ffffff" /><path
   class="st3"
   d="m -19.441851,-12.847866 h -3.288795 c 0,0 -0.04444,0 -0.04444,-0.04444 v -3.288795 c 0,-0.755534 -0.622204,-1.377738 -1.377738,-1.377738 v 0 c -0.755534,0 -1.377738,0.622204 -1.377738,1.377738 v 2.666591 0.311102 0.177773 c 0,0.08889 -0.08889,0.177772 -0.177773,0.177772 h -0.222216 -0.266659 -2.79992 c -0.755534,0 -1.377738,0.622205 -1.377738,1.377739 v 0 c 0,0.755534 0.622204,1.377738 1.377738,1.377738 h 3.422124 c 0,0 0.04444,0 0.04444,0.04444 v 3.2887949 c 0,0.755534 0.622204,1.377739 1.377738,1.377739 v 0 c 0.755534,0 1.377738,-0.622205 1.377738,-1.377739 v -2.66659 -0.311102 -0.177773 c 0,-0.08889 0.08889,-0.1777729 0.177773,-0.1777729 h 0.08889 0.399989 2.66659 c 0.755534,0 1.377739,-0.622204 1.377739,-1.377738 v 0 c 0,-0.755534 -0.622205,-1.377739 -1.377739,-1.377739 z"
   id="path12-6"
   inkscape:connector-curvature="0"
   style="fill:#1c241f;stroke-width:0.44443175" /><g
   id="g50"
   style="fill:#f2f2f2"
   transform="translate(-110.25636,-48.068856)"><path
     style="fill:#f2f2f2"
     inkscape:connector-curvature="0"
     id="path12-7"
     d="M 46.9,34.6 37.3,29 c -0.5,-0.3 -1,-0.3 -1.5,0 l -9.6,5.6 c -0.5,0.3 -0.8,0.8 -0.8,1.3 V 47 c 0,0.5 0.3,1 0.8,1.3 l 9.6,5.6 c 0.2,0.1 0.5,0.2 0.8,0.2 0.3,0 0.5,-0.1 0.8,-0.2 L 47,48.3 C 47.5,48 47.8,47.5 47.8,47 V 35.9 c -0.2,-0.5 -0.5,-1.1 -0.9,-1.3 z"
     class="st3" /><g
     id="g18"
     style="fill:#f2f2f2"><path
       style="fill:#f2f2f2"
       inkscape:connector-curvature="0"
       id="path14"
       d="M 36.5,42.4 C 36,42.4 35.6,42 35.6,41.5 V 15.7 c 0,-0.5 0.4,-0.9 0.9,-0.9 0.5,0 0.9,0.4 0.9,0.9 v 25.8 c 0,0.5 -0.4,0.9 -0.9,0.9 z"
       class="st3" /><path
       style="fill:#f2f2f2"
       inkscape:connector-curvature="0"
       id="path16"
       d="m 36.5,16.7 c -2.2,0 -4,-1.8 -4,-4 0,-2.2 1.8,-4 4,-4 2.2,0 4,1.8 4,4 0,2.1 -1.8,4 -4,4 z m 0,-6.3 c -1.2,0 -2.2,1 -2.2,2.2 0,1.2 1,2.2 2.2,2.2 1.2,0 2.2,-1 2.2,-2.2 0,-1.2 -1,-2.2 -2.2,-2.2 z"
       class="st3" /></g><g
     id="g24"
     style="fill:#f2f2f2"><path
       style="fill:#f2f2f2"
       inkscape:connector-curvature="0"
       id="path20"
       d="m 36.5,42.4 c -0.2,0 -0.3,0 -0.5,-0.1 L 13.7,29.4 c -0.4,-0.3 -0.6,-0.8 -0.3,-1.2 0.3,-0.4 0.8,-0.6 1.2,-0.3 L 37,40.7 c 0.4,0.3 0.6,0.8 0.3,1.2 -0.2,0.3 -0.5,0.5 -0.8,0.5 z"
       class="st3" /><path
       style="fill:#f2f2f2"
       inkscape:connector-curvature="0"
       id="path22"
       d="m 11.5,31.1 c -0.7,0 -1.4,-0.2 -2,-0.5 C 7.5,29.4 6.9,27 8,25 c 0.5,-0.9 1.4,-1.6 2.5,-1.9 1,-0.3 2.1,-0.1 3.1,0.4 0.9,0.5 1.6,1.4 1.9,2.5 0.3,1 0.1,2.1 -0.4,3.1 -0.9,1.3 -2.2,2 -3.6,2 z m 0,-6.3 c -0.2,0 -0.4,0 -0.6,0.1 -0.6,0.2 -1.1,0.5 -1.3,1 -0.6,1.1 -0.2,2.4 0.8,3 1.1,0.6 2.4,0.2 3,-0.8 0.3,-0.5 0.4,-1.1 0.2,-1.7 -0.2,-0.6 -0.5,-1.1 -1,-1.3 v 0 c -0.3,-0.2 -0.7,-0.3 -1.1,-0.3 z"
       class="st3" /></g><g
     id="g30"
     style="fill:#f2f2f2"><path
       style="fill:#f2f2f2"
       inkscape:connector-curvature="0"
       id="path26"
       d="m 14.2,55.3 c -0.3,0 -0.6,-0.2 -0.8,-0.5 -0.3,-0.4 -0.1,-1 0.3,-1.2 L 36,40.7 c 0.4,-0.3 1,-0.1 1.2,0.3 0.3,0.4 0.1,1 -0.3,1.2 l -22.2,13 c -0.2,0 -0.3,0.1 -0.5,0.1 z"
       class="st3" /><path
       style="fill:#f2f2f2"
       inkscape:connector-curvature="0"
       id="path28"
       d="M 11.5,60 C 11.1,60 10.8,60 10.4,59.9 9.4,59.6 8.5,59 7.9,58 7.4,57.1 7.2,56 7.5,54.9 7.8,53.9 8.4,53 9.4,52.4 v 0 c 0.9,-0.5 2,-0.7 3.1,-0.4 1,0.3 1.9,0.9 2.5,1.9 0.5,0.9 0.7,2 0.4,3.1 -0.3,1 -0.9,1.9 -1.9,2.5 -0.6,0.3 -1.3,0.5 -2,0.5 z m 0,-6.3 c -0.4,0 -0.8,0.1 -1.1,0.3 v 0 c -0.5,0.3 -0.9,0.8 -1,1.3 -0.2,0.6 -0.1,1.2 0.2,1.7 0.3,0.5 0.8,0.9 1.3,1 0.6,0.2 1.2,0.1 1.7,-0.2 0.5,-0.3 0.9,-0.8 1,-1.3 0.1,-0.5 0.1,-1.2 -0.2,-1.7 -0.3,-0.5 -0.8,-0.9 -1.3,-1 -0.2,-0.1 -0.4,-0.1 -0.6,-0.1 z M 9.9,53.2 Z"
       class="st3" /></g><g
     id="g36"
     style="fill:#f2f2f2"><path
       style="fill:#f2f2f2"
       inkscape:connector-curvature="0"
       id="path32"
       d="m 36.5,68.2 c -0.5,0 -0.9,-0.4 -0.9,-0.9 V 41.5 c 0,-0.5 0.4,-0.9 0.9,-0.9 0.5,0 0.9,0.4 0.9,0.9 v 25.8 c 0,0.5 -0.4,0.9 -0.9,0.9 z"
       class="st3" /><path
       style="fill:#f2f2f2"
       inkscape:connector-curvature="0"
       id="path34"
       d="m 36.5,74.4 c -2.2,0 -4,-1.8 -4,-4 0,-2.2 1.8,-4 4,-4 2.2,0 4,1.8 4,4 0,2.2 -1.8,4 -4,4 z m 0,-6.2 c -1.2,0 -2.2,1 -2.2,2.2 0,1.2 1,2.2 2.2,2.2 1.2,0 2.2,-1 2.2,-2.2 0,-1.2 -1,-2.2 -2.2,-2.2 z"
       class="st3" /></g><g
     id="g42"
     style="fill:#f2f2f2"><path
       style="fill:#f2f2f2"
       inkscape:connector-curvature="0"
       id="path38"
       d="m 58.8,55.3 c -0.2,0 -0.3,0 -0.5,-0.1 L 36,42.3 C 35.6,42 35.4,41.5 35.7,41.1 36,40.7 36.5,40.5 36.9,40.8 l 22.3,12.9 c 0.4,0.3 0.6,0.8 0.3,1.2 -0.1,0.2 -0.4,0.4 -0.7,0.4 z"
       class="st3" /><path
       style="fill:#f2f2f2"
       inkscape:connector-curvature="0"
       id="path40"
       d="m 61.5,60 c -0.7,0 -1.4,-0.2 -2,-0.5 v 0 C 58.6,59 57.9,58.1 57.6,57 57.3,56 57.5,54.9 58,53.9 58.5,53 59.4,52.3 60.5,52 c 1,-0.3 2.1,-0.1 3.1,0.4 0.9,0.5 1.6,1.4 1.9,2.5 0.3,1 0.1,2.1 -0.4,3.1 -0.5,0.9 -1.4,1.6 -2.5,1.9 -0.4,0 -0.7,0.1 -1.1,0.1 z m 0,-6.3 c -0.2,0 -0.4,0 -0.6,0.1 -0.6,0.2 -1.1,0.5 -1.3,1 -0.3,0.5 -0.4,1.1 -0.2,1.7 0.2,0.6 0.5,1.1 1,1.3 v 0 c 0.5,0.3 1.1,0.4 1.7,0.2 0.6,-0.2 1.1,-0.5 1.3,-1 0.3,-0.5 0.4,-1.1 0.2,-1.7 -0.2,-0.6 -0.5,-1.1 -1,-1.3 -0.3,-0.2 -0.7,-0.3 -1.1,-0.3 z"
       class="st3" /></g><g
     id="g48"
     style="fill:#f2f2f2"><path
       style="fill:#f2f2f2"
       inkscape:connector-curvature="0"
       id="path44"
       d="m 36.5,42.4 c -0.3,0 -0.6,-0.2 -0.8,-0.5 -0.3,-0.4 -0.1,-1 0.3,-1.2 L 58.3,27.8 c 0.4,-0.3 1,-0.1 1.2,0.3 0.3,0.4 0.1,1 -0.3,1.2 L 37,42.3 c -0.2,0.1 -0.3,0.1 -0.5,0.1 z"
       class="st3" /><path
       style="fill:#f2f2f2"
       inkscape:connector-curvature="0"
       id="path46"
       d="m 61.5,31.1 c -1.4,0 -2.8,-0.7 -3.5,-2 -0.5,-0.9 -0.7,-2 -0.4,-3.1 0.3,-1 0.9,-1.9 1.9,-2.5 0.9,-0.5 2,-0.7 3.1,-0.4 1,0.3 1.9,0.9 2.5,1.9 0.5,0.9 0.7,2 0.4,3.1 -0.3,1 -0.9,1.9 -1.9,2.5 v 0 c -0.7,0.3 -1.4,0.5 -2.1,0.5 z m 1.6,-1.3 z m -1.6,-5 c -0.4,0 -0.8,0.1 -1.1,0.3 -0.5,0.3 -0.9,0.8 -1,1.3 -0.1,0.5 -0.1,1.2 0.2,1.7 0.6,1.1 2,1.4 3,0.8 0.5,-0.3 0.9,-0.8 1,-1.3 0.2,-0.6 0.1,-1.2 -0.2,-1.7 -0.3,-0.5 -0.8,-0.9 -1.3,-1 -0.2,0 -0.4,-0.1 -0.6,-0.1 z"
       class="st3" /></g></g><path
   style="fill:#ffffff"
   inkscape:connector-curvature="0"
   id="path10-5"
   d="m 50.9,58.548302 c 0.3,0.7 -0.5,1.3 -1.1,0.9 -3,-1.9 -8.6,-5.1 -13.3,-5.1 -4.7,0 -10.4,3.2 -13.3,5.1 -0.6,0.4 -1.4,-0.2 -1.1,-0.9 l 13.3,-34.4 c 0.4,-1 1.9,-1 2.3,0 z"
   class="st3" /></svg>